<svg width="1440" height="382" viewBox="0 0 1440 382" fill="none" xmlns="http://www.w3.org/2000/svg">
<g clip-path="url(#clip0_210_44)">
<path d="M-62 -108C-20.0163 -20.1105 37.309 60.8543 108.286 130.87C269.992 290.385 489.313 380 718 380C946.687 380 1166.01 290.385 1327.71 130.87C1398.69 60.8542 1456.02 -20.1105 1498 -108H-62Z" fill="#F9ECFF"/>
<path d="M-4 -94C34.4199 -18.1543 84.9982 51.8573 146.489 113.041C298.328 264.123 504.267 349 719 349C933.734 349 1139.67 264.123 1291.51 113.041C1353 51.8573 1403.58 -18.1543 1442 -94H-4Z" fill="#D0ABE1"/>
<path d="M759.883 276.133C733.361 290.424 706.147 291.139 676.765 275.57C675.663 280.387 676.512 283.057 681.093 287.16C699.181 303.379 727.393 307.225 750.436 293.625C757.767 289.297 759.312 283.625 759.883 276.133Z" fill="#F9ECFF"/>
<path d="M690.789 320.55C703.217 327.867 722.455 327.292 736.466 321.933C728.022 322.919 711.241 326.62 690.789 320.55Z" fill="#F9ECFF"/>
<path d="M743.875 309.603C745.051 309.08 746.21 308.547 747.345 308.008C729.416 312.798 724.494 312.714 724.624 312.695C714.468 314.092 698.687 312.325 686.641 307.691C694.818 312.72 706.842 315.284 716.902 315.2C731.007 314.944 741.355 310.713 741.226 310.756C742.591 310.166 744.015 309.539 743.875 309.603Z" fill="#F9ECFF"/>
<path d="M665.583 197.308C663.81 198.496 662.055 200.939 662.849 201.577C663.626 202.204 667.02 200.982 668.048 200.76C672.933 199.706 678.231 198.001 683.784 198.393C714.37 200.548 711.191 222.68 716.414 222.802C719.247 222.868 717.324 213.883 716.758 210.633C713.892 194.195 676.192 190.212 665.583 197.308Z" fill="#F9ECFF"/>
<path d="M737.479 198.174C727.571 202.468 723.889 208.899 724.15 217.764C724.174 218.582 724.595 227.027 726.504 227.442C731.129 228.446 728.252 218.863 737.32 208.099C741.752 202.84 748.426 198.308 756.178 198.607C769.167 199.109 763.086 199.227 773.555 201.523C768.518 191.597 749.559 192.939 737.479 198.174Z" fill="#F9ECFF"/>
<path d="M696.449 219.42C700.906 218.268 702.727 217.928 702.508 212.208C690.895 217.912 679.86 214.267 668.188 212.619C677.505 221.675 680.797 223.462 696.449 219.42Z" fill="#F9ECFF"/>
<path d="M730.307 240.804C729.64 240.927 728.994 241.122 728.4 241.399C727.4 241.869 726.614 242.555 725.944 243.318C725.194 244.172 724.622 245.552 723.243 245.85C722.575 245.993 721.863 245.804 721.253 245.536C720.437 245.18 719.761 244.644 719.181 244.056C718.692 243.558 718.33 242.843 717.475 242.73C717.442 242.725 717.406 242.723 717.373 242.718C716.233 242.636 714.598 243.599 713.504 243.822C712.04 244.119 710.504 244.147 709.059 243.758C706.204 242.998 704.225 240.906 702.835 238.81C702.631 243.701 702.076 243.379 714.84 251.368C717.997 253.343 720.783 253.162 723.817 251.182C726.386 249.501 729.148 247.882 731.34 245.852C732.701 244.589 734.184 242.586 732.923 240.888C732.448 240.25 731.024 240.672 730.307 240.804Z" fill="#F9ECFF"/>
<path d="M734.672 214.541C739.766 226.281 757.432 220.414 768.816 212.757C751.667 215.904 739.277 215.593 734.672 214.541Z" fill="#F9ECFF"/>
<path d="M723.145 257.66C723.013 257.663 717.646 257.829 717.775 257.826C710.829 257.901 703.044 257.599 696.34 256.094C704.135 261.516 723.439 263.553 739.552 256.691C737.032 256.716 725.967 257.622 723.145 257.66Z" fill="#F9ECFF"/>
<path d="M704.723 263.976C706.816 267.591 711.716 270.404 719.429 270.1C727.414 269.03 733.275 263.903 735.506 258.721C729.964 262.647 725.488 265.767 718.932 266.948C714.384 267.35 710.128 267.059 704.723 263.976Z" fill="#F9ECFF"/>
<path d="M631.812 170.068C630.098 172.248 630.452 175.148 632.711 177.014C635.566 179.374 641.792 178.044 638.119 184.421C633.835 191.864 644.691 189.124 646.906 197.494C647.008 198.306 647.139 199.111 647.313 199.908C640.49 188.591 625.404 190.262 631.562 205.326C646.304 241.394 653.528 237.095 650.176 261.105C648.78 271.11 653.589 275.018 658.424 273.923C663.953 272.67 667.724 266.278 665.38 261.698C656.581 244.516 656.6 231.6 654.975 213.109C653.413 195.305 656.374 185.355 657.354 179.039C659.021 168.257 672.116 167.104 682.997 165.261C685.859 166.908 688.804 168.352 692.122 167.257C697.67 165.42 699.538 171.065 709.014 169.379C713.511 168.579 715.59 172.839 720.448 171.353C722.952 170.585 725.28 169.45 727.525 168.542C728.554 168.88 729.764 169.658 730.859 169.569C749.633 168.027 751.025 164.718 763.558 167.125C768 167.975 771.957 169.389 774.461 172.533C785.221 186.041 781.622 212.305 781.181 221.002C778.917 265.288 764.519 265.042 774.544 273.553C779.571 277.825 787.364 272.393 786.486 268.149C784.998 260.919 784.065 250.053 787.067 242.35C791.28 231.523 792.778 229.995 796.875 219.135C798.338 215.257 799.788 211.374 801.177 207.476C801.848 205.588 805.626 198.185 801.733 197.829C798.919 197.573 796.09 199.957 794.339 197.346C796.521 196.311 798.143 194.833 798.367 192.661C804.122 193.901 808.696 188.913 806.051 184.737C802.458 179.06 805.722 181.969 809.108 179.084C811.519 177.03 811.615 173.837 809.459 171.675C806.249 168.468 802.193 171.485 808.728 164.002C809.523 163.094 809.989 161.98 809.989 160.772C809.989 153.746 798.661 157.454 805.569 148.757C808.712 144.801 804.742 139.638 799.175 140.19C798.057 140.298 795.802 137.851 797.91 134.251C800.305 130.168 795.94 125.509 790.552 126.401C788.492 126.742 785.997 124.013 787.07 121.487C788.868 117.261 784.049 113.078 778.869 114.332C773.624 115.601 776.17 111.217 776.17 109.655C776.17 105.912 771.791 103.257 767.531 104.312C764.88 104.97 762.868 103.721 764.522 100.454C766.608 96.3362 762.235 92.0366 757.18 92.8258C755.672 93.058 753.5 91.3556 756.186 87.1379C757.451 85.1478 757.141 82.6773 755.295 80.9353C751.945 77.7654 748.611 80.8983 753.446 74.6377C755.014 72.6106 754.819 69.9317 752.871 68.063C749.773 65.0884 746.119 67.6723 750.246 61.2507C751.597 59.1444 751.175 56.5156 749.102 54.7683C745.187 51.4691 741.785 55.2461 745.487 49.4473C748.879 44.129 740.811 38.5757 735.101 42.6852C735.047 42.6509 734.992 42.6166 734.941 42.5796C737.551 37.4407 730.39 32.7083 724.909 35.8281C721.942 37.5199 723.642 38.2642 721.524 38.3064C720.508 38.3249 720.975 36.9577 718.605 35.4638C713.686 32.3599 706.756 36.0234 707.934 40.9379C708.468 43.1524 707.248 42.0966 704.824 42.0966C700.381 42.0966 697.168 45.6017 698.305 49.0593C698.957 51.0336 697.19 53.5621 695.865 53.5621C690.611 53.5621 687.446 58.2946 690.043 61.929C694.632 68.3533 689.858 66.2497 686.76 68.8099C684.482 70.6918 684.15 73.6162 685.888 75.7937C685.974 75.902 691.036 80.4971 687.06 79.9138C683.128 79.3385 679.296 81.9303 679.296 85.4117C679.296 88.6634 685.619 93.5833 680.825 92.8284C675.735 92.026 671.343 96.352 673.47 100.485C675.137 103.726 673.138 104.999 670.953 104.508C666.785 103.571 662.531 106.21 662.531 109.895C662.531 111.621 665.84 116.675 660.005 115.01C654.483 113.434 649.269 118.153 651.711 122.566C654.537 127.674 649.299 126.177 647.884 126.177C644.161 126.177 641.141 128.671 641.141 131.752C641.141 134.035 645.519 138.997 639.6 138.997C634.362 138.997 631.175 143.711 633.772 147.358C638.198 153.571 632.708 153.669 630.686 155.551C628.531 157.557 628.435 160.547 630.436 162.643C633.299 165.639 637.149 163.279 631.812 170.068Z" fill="#F9ECFF"/>
<path d="M1017.37 43.8882C1017.37 43.8882 1018.6 43.8113 1020.76 43.8866C1022.91 43.9651 1026.01 44.1706 1029.59 45.0209C1031.38 45.4633 1033.25 46.0673 1035.04 47.1215C1036.83 48.171 1038.5 49.652 1040.1 51.2741C1041.72 52.9041 1043.19 54.7553 1044.88 56.5736C1045.75 57.4505 1046.63 58.4279 1048.04 58.9472C1048.7 59.2201 1049.67 59.159 1050.27 58.8766C1051.09 58.5848 1051.61 57.7172 1051.65 56.9752C1051.76 55.466 1051.1 54.2658 1050.45 53.1645C1049.75 52.0774 1048.91 51.1157 1048.01 50.2419C1046.2 48.502 1044.14 47.1246 1042.04 46.0108C1037.84 43.8144 1033.5 42.5955 1029.72 42.2817C1025.94 41.9225 1022.8 42.3774 1020.65 42.7132C1018.52 43.0724 1017.3 43.2779 1017.3 43.2779C1017.13 43.303 1017.01 43.4599 1017.04 43.6278C1017.07 43.7831 1017.22 43.8945 1017.37 43.8882ZM1017.4 43.885C1017.4 43.885 1018.62 43.7172 1020.77 43.4222C1022.9 43.1336 1025.98 42.8481 1029.64 43.2199C1033.29 43.5603 1037.48 44.7871 1041.53 46.9536C1043.53 48.0471 1045.5 49.3947 1047.19 51.0514C1048.03 51.8813 1048.8 52.7896 1049.41 53.7748C1050 54.7459 1050.5 55.8786 1050.4 56.8277C1050.36 57.2968 1050.15 57.6058 1049.79 57.7533C1049.27 57.9745 1048.92 57.9745 1048.41 57.8223C1047.45 57.5007 1046.56 56.6316 1045.74 55.7939C1044.09 54.0619 1042.56 52.1825 1040.89 50.5321C1039.22 48.877 1037.48 47.3694 1035.57 46.2665C1033.66 45.1636 1031.63 44.533 1029.8 44.1031C1026.1 43.2528 1022.94 43.2058 1020.76 43.1697C1018.57 43.1603 1017.32 43.2763 1017.32 43.2763L1017.4 43.885Z" fill="#F9ECFF"/>
<path d="M1022.54 40.3778C1022.54 40.3778 1023.49 40.1427 1025.22 39.946C1026.94 39.7444 1029.44 39.5957 1032.37 39.9843C1033.85 40.2018 1035.36 40.5617 1036.9 41.2765C1038.41 41.9834 1039.96 42.9605 1041.53 43.9745C1043.1 44.9932 1044.66 46.1447 1046.44 47.1618C1047.34 47.6384 1048.31 48.1725 1049.57 48.1709C1050.18 48.1661 1050.88 47.8894 1051.32 47.4752C1051.85 47.0178 1052.06 46.263 1051.99 45.6489C1051.83 44.4015 1051.12 43.4995 1050.4 42.7239C1049.66 41.953 1048.82 41.3229 1047.95 40.7776C1046.2 39.6901 1044.33 38.9464 1042.49 38.3867C1038.8 37.2816 1035.15 36.9601 1032.1 37.2448C1029.03 37.5151 1026.6 38.3147 1024.94 38.8792C1023.29 39.4582 1022.35 39.7892 1022.35 39.7892C1022.19 39.842 1022.1 40.0163 1022.16 40.1762C1022.21 40.3282 1022.38 40.4113 1022.54 40.3778ZM1022.55 40.373C1022.55 40.373 1023.51 40.0771 1025.18 39.5605C1026.84 39.0424 1029.24 38.4219 1032.19 38.1868C1035.14 37.9517 1038.63 38.3035 1042.17 39.415C1043.93 39.9731 1045.71 40.712 1047.32 41.7419C1048.86 42.7334 1050.51 44.184 1050.74 45.7416C1050.77 46.1031 1050.69 46.3893 1050.46 46.5924C1050.17 46.8499 1049.89 46.9523 1049.5 46.9842C1048.73 47.0114 1047.83 46.6084 1047 46.1606C1045.32 45.2331 1043.73 44.088 1042.12 43.0789C1040.51 42.0666 1038.96 41.107 1037.32 40.3666C1035.71 39.6373 1034 39.2455 1032.49 39.0504C1029.41 38.6714 1026.86 38.9848 1025.11 39.2359C1023.35 39.503 1022.37 39.7844 1022.37 39.7844L1022.55 40.373Z" fill="#F9ECFF"/>
<path d="M1027.8 36.1377C1027.8 36.1377 1028.5 35.8408 1029.82 35.4868C1030.48 35.3416 1031.28 35.1116 1032.22 35.0056C1033.15 34.8409 1034.22 34.805 1035.37 34.7528C1035.94 34.7805 1036.53 34.8099 1037.14 34.8392C1037.76 34.9077 1038.42 35.0676 1039.09 35.1834C1040.34 35.4444 1041.72 35.9289 1043.06 36.4754C1044.43 37.0267 1045.76 37.7216 1047.22 38.3905C1047.97 38.6792 1048.74 39.1147 1049.85 38.9598C1050.1 38.9402 1050.4 38.7885 1050.67 38.6351C1050.86 38.4508 1050.9 38.5144 1051.19 38.1311C1051.56 37.676 1051.63 37.0006 1051.47 36.5227C1050.74 34.5799 1049.06 33.849 1047.62 33.1509C1046.1 32.5196 1044.55 32.1721 1043.02 31.9584C1041.57 31.7594 1040.02 31.7431 1038.65 31.7937C1037.25 31.8622 1035.96 32.0922 1034.77 32.363C1032.41 32.9649 1030.63 33.9127 1029.41 34.5472C1028.21 35.2079 1027.52 35.5863 1027.52 35.5863C1027.37 35.6679 1027.32 35.8555 1027.4 36.0039C1027.48 36.1442 1027.66 36.1981 1027.8 36.1377ZM1027.81 36.1328C1027.81 36.1328 1028.52 35.7886 1029.75 35.185C1030.99 34.5962 1032.77 33.8278 1035.02 33.2797C1036.15 33.0416 1037.39 32.8409 1038.72 32.7985C1039.38 32.7121 1040.06 32.8263 1040.76 32.8311C1041.46 32.8409 1042.15 32.9111 1042.9 33.0253C1044.32 33.2471 1045.79 33.6044 1047.16 34.2014C1048.46 34.7838 1049.93 35.7119 1050.26 36.8163C1050.34 37.0773 1050.31 37.26 1050.19 37.4133C1050.29 37.3791 1049.96 37.6287 1049.87 37.7086C1049.78 37.7168 1049.75 37.7804 1049.6 37.7885C1049.12 37.9043 1048.36 37.6189 1047.69 37.3367C1046.29 36.7282 1044.88 36.0251 1043.47 35.4803C1042.04 34.9306 1040.69 34.4689 1039.26 34.1916C1038.59 34.0856 1037.95 33.9404 1037.29 33.8784C1036.62 33.8539 1035.97 33.8311 1035.35 33.8083C1032.9 33.8768 1030.94 34.402 1029.6 34.7984C1028.27 35.2275 1027.53 35.5814 1027.53 35.5814L1027.81 36.1328Z" fill="#F9ECFF"/>
<path d="M978.387 157.466C978.387 157.466 979.786 156.721 982.158 155.31C984.527 153.894 987.887 151.824 991.699 149.019C993.595 147.604 995.594 145.993 997.562 144.115C999.487 142.239 1001.51 140.048 1002.75 137.305C1004.03 134.613 1004.8 131.62 1005.47 128.637C1005.82 127.169 1006.13 125.616 1006.83 124.433C1007.18 123.861 1007.68 123.458 1008.25 123.368C1008.97 123.226 1009.28 123.409 1009.67 123.944C1010.35 125.037 1010.39 126.652 1010.23 128.092C1010.06 129.571 1009.64 131.024 1009.1 132.414C1007.99 135.182 1006.4 137.758 1004.52 139.913C1002.63 142.073 1000.44 143.872 998.305 145.477C996.167 147.085 994.03 148.466 992.022 149.679C983.983 154.583 978.11 156.911 978.11 156.911L978.387 157.466ZM978.353 157.481C978.353 157.481 984.338 155.257 992.525 150.47C994.562 149.258 996.732 147.878 998.917 146.261C1001.1 144.644 1003.34 142.828 1005.33 140.596C1007.31 138.349 1008.97 135.741 1010.17 132.839C1010.75 131.381 1011.22 129.852 1011.42 128.248C1011.58 126.659 1011.69 124.944 1010.72 123.29C1010.46 122.89 1010.08 122.499 1009.55 122.282C1009.04 122.052 1008.41 122.102 1008.04 122.178C1007.01 122.343 1006.23 123.069 1005.8 123.813C1004.94 125.334 1004.7 126.888 1004.34 128.381C1003.71 131.376 1002.99 134.262 1001.8 136.873C1000.64 139.483 998.753 141.549 996.863 143.425C994.954 145.277 992.982 146.871 991.127 148.298C987.408 151.145 984.105 153.266 981.778 154.72C979.445 156.166 978.075 156.927 978.075 156.927C977.926 157.011 977.875 157.197 977.962 157.346C978.041 157.481 978.211 157.534 978.353 157.481Z" fill="#F9ECFF"/>
<path d="M975.94 159.907C975.94 159.907 981.168 158.52 988.807 155.817C990.717 155.141 992.757 154.328 994.89 153.399C996.992 152.462 999.287 151.396 1001.32 149.837C1003.36 148.267 1005.09 146.236 1006.66 144.139C1007.45 143.11 1008.22 142.003 1009.12 141.232C1009.57 140.847 1010.07 140.66 1010.44 140.741C1010.99 140.851 1011.21 141.094 1011.32 141.578C1011.52 142.574 1010.97 143.837 1010.33 144.877C1009.67 145.945 1008.83 146.922 1007.92 147.816C1006.1 149.615 1003.96 151.054 1001.83 152.323C997.566 154.886 993.033 156.209 989.085 156.94C985.132 157.698 981.762 158.123 979.43 158.569C977.085 158.997 975.779 159.312 975.779 159.312L975.94 159.907ZM975.916 159.913C975.916 159.913 977.245 159.627 979.564 159.26C981.889 158.869 985.25 158.535 989.276 157.847C993.282 157.141 997.978 155.813 1002.38 153.216C1004.56 151.932 1006.78 150.49 1008.73 148.62C1009.7 147.693 1010.61 146.671 1011.36 145.502C1012.06 144.327 1012.8 143.03 1012.55 141.346C1012.46 140.489 1011.52 139.637 1010.7 139.569C1009.71 139.379 1008.88 139.862 1008.34 140.332C1007.23 141.314 1006.52 142.425 1005.73 143.465C1004.2 145.568 1002.58 147.519 1000.66 149.04C998.724 150.549 996.567 151.565 994.47 152.521C992.376 153.455 990.353 154.263 988.47 154.972C980.938 157.821 975.755 159.317 975.755 159.317C975.589 159.362 975.495 159.533 975.543 159.696C975.59 159.852 975.756 159.945 975.916 159.913Z" fill="#F9ECFF"/>
<path d="M974.521 161.221C974.521 161.222 979.09 161.215 985.928 160.741C987.637 160.61 989.485 160.432 991.436 160.17C993.364 159.893 995.475 159.576 997.529 158.901C999.605 158.192 1001.58 157.15 1003.49 155.979C1004.44 155.407 1005.38 154.764 1006.31 154.367C1006.75 154.17 1007.23 154.144 1007.43 154.235C1007.48 154.225 1007.65 154.367 1007.75 154.426C1007.77 154.425 1007.83 154.528 1007.88 154.561C1007.95 154.678 1007.99 154.808 1007.98 154.986C1007.94 155.735 1007.2 156.627 1006.4 157.247C1005.58 157.893 1004.64 158.42 1003.65 158.834C1001.67 159.667 999.525 160.112 997.443 160.384C993.253 160.924 989.266 161.061 985.863 161.123C982.456 161.198 979.613 161.141 977.635 161.017C976.643 160.955 975.876 160.866 975.383 160.792C974.873 160.702 974.589 160.617 974.589 160.617L974.521 161.221ZM974.431 161.21C974.431 161.21 974.695 161.297 975.235 161.41C975.797 161.515 976.589 161.625 977.588 161.713C979.593 161.893 982.453 162.031 985.886 162.044C989.317 162.013 993.32 161.915 997.598 161.405C999.74 161.138 1001.96 160.724 1004.1 159.865C1005.17 159.44 1006.21 158.887 1007.16 158.165C1008.06 157.421 1009.06 156.56 1009.23 155.041C1009.25 154.661 1009.14 154.232 1008.89 153.878C1008.74 153.716 1008.65 153.56 1008.42 153.419C1008.27 153.342 1008.23 153.273 1008 153.184C1007.13 152.811 1006.41 153.062 1005.83 153.287C1004.69 153.799 1003.8 154.454 1002.86 155.034C1001.02 156.21 999.115 157.255 997.18 157.945C995.201 158.611 993.214 158.924 991.284 159.219C989.363 159.502 987.526 159.671 985.835 159.851C979.054 160.488 974.499 160.608 974.499 160.608C974.325 160.61 974.192 160.753 974.198 160.923C974.203 161.055 974.294 161.165 974.415 161.206L974.431 161.21Z" fill="#F9ECFF"/>
<path d="M971.045 308.307L970.921 308.454C970.816 308.583 970.537 308.924 970.42 308.934L970.268 308.817C970.247 308.62 970.798 307.962 971.242 307.432C972.462 305.969 974.504 303.524 975.499 299.357C977.739 290.733 971.451 280.02 963.488 266.456C961.537 263.131 959.518 259.692 957.466 256.023C948.907 240.636 944.536 229.88 944.393 213.793C944.329 205.779 945.763 197.707 948.543 190.448C957.926 165.956 977.705 159.519 992.112 163.905C992.144 163.915 992.176 163.925 992.208 163.935C1002.63 167.152 1011.63 176.914 1008.29 191.529C1006.77 197.818 1003.72 202.642 999.229 205.859C994.883 209.009 990.414 210.201 986.3 209.307C982.098 208.391 979.186 205.557 977.837 203.202C976.739 201.286 976.688 199.425 977.206 198.575C977.481 198.125 977.81 198.132 977.92 198.136C978.271 198.145 979.58 198.436 981.487 201.788C982.716 204.099 985.311 205.603 988.397 205.785C993.427 206.087 998.493 203.174 1001.95 197.994C1006.95 190.035 1007.43 182.072 1003.3 175.559C998.964 168.714 990.116 164.765 980.759 165.503C967.658 166.532 956.64 175.908 950.537 191.225C947.745 198.211 946.247 206.027 946.2 213.826C946.12 231.04 951.49 242.407 958.515 255.479C960.491 259.129 962.459 262.581 964.362 265.922C972.231 279.727 978.446 290.632 975.995 299.474C975.219 302.498 973.739 305.137 971.045 308.307ZM970.09 309.985C970.266 310.04 970.422 310.046 970.545 310.034C971.132 309.978 971.521 309.501 971.808 309.154L971.916 309.023C971.916 309.021 971.916 309.021 971.917 309.02C974.726 305.718 976.272 302.953 977.088 299.769C979.658 290.5 973.341 279.422 965.346 265.393C963.446 262.059 961.481 258.611 959.512 254.974C951.375 239.838 947.259 229.321 947.329 213.847C947.374 206.183 948.848 198.503 951.587 191.64C957.534 176.725 968.206 167.6 980.864 166.604C989.803 165.902 998.235 169.644 1002.34 176.132C1006.23 182.268 1005.75 189.818 1001 197.392C997.766 202.228 993.072 204.958 988.45 204.682C985.719 204.517 983.541 203.275 982.479 201.275C980.915 198.527 979.351 197.074 977.932 197.03C977.226 197.012 976.623 197.357 976.232 197.998C975.411 199.347 975.662 201.652 976.853 203.732C978.329 206.301 981.499 209.397 986.07 210.386C989.168 211.059 994.081 210.974 999.906 206.754C1004.62 203.381 1007.81 198.346 1009.39 191.79C1012.89 176.479 1003.46 166.253 992.533 162.881C992.501 162.871 992.466 162.86 992.434 162.85C977.541 158.316 957.121 164.893 947.483 190.047C944.656 197.43 943.196 205.638 943.265 213.786C943.409 230.109 947.828 240.992 956.478 256.544C958.537 260.222 960.557 263.666 962.512 266.996C970.344 280.342 976.53 290.881 974.4 299.08C973.464 303.01 971.598 305.246 970.362 306.724C969.587 307.654 969.074 308.269 969.148 308.927C969.183 309.237 969.341 309.507 969.623 309.729C969.785 309.861 969.943 309.94 970.09 309.985Z" fill="#F9ECFF"/>
<path d="M992.549 199.074C992.261 200.007 992.805 201.003 993.762 201.298C994.719 201.594 995.728 201.077 996.016 200.145C996.305 199.211 995.762 198.215 994.805 197.919C993.847 197.624 992.837 198.14 992.549 199.074Z" fill="#F9ECFF"/>
<path d="M996.989 193.925C996.701 194.858 997.243 195.854 998.2 196.149C999.158 196.445 1000.17 195.927 1000.45 194.994C1000.74 194.06 1000.2 193.067 999.242 192.772C998.285 192.476 997.277 192.991 996.989 193.925Z" fill="#F9ECFF"/>
<path d="M999.718 188.141C999.43 189.073 999.973 190.069 1000.93 190.365C1001.89 190.66 1002.9 190.142 1003.18 189.21C1003.47 188.277 1002.93 187.282 1001.97 186.987C1001.02 186.692 1000.01 187.208 999.718 188.141Z" fill="#F9ECFF"/>
<path d="M1000.15 180.582C999.863 181.515 1000.4 182.511 1001.36 182.807C1002.32 183.102 1003.33 182.584 1003.62 181.653C1003.91 180.719 1003.36 179.723 1002.41 179.428C1001.45 179.132 1000.44 179.648 1000.15 180.582Z" fill="#F9ECFF"/>
<path d="M995.667 173.854C995.379 174.787 995.922 175.783 996.879 176.078C997.836 176.374 998.846 175.858 999.134 174.923C999.422 173.991 998.879 172.996 997.921 172.701C996.964 172.405 995.954 172.922 995.667 173.854Z" fill="#F9ECFF"/>
<path d="M988.178 169.694C987.89 170.627 988.432 171.621 989.391 171.917C990.348 172.212 991.358 171.696 991.646 170.763C991.933 169.831 991.391 168.835 990.433 168.539C989.475 168.244 988.466 168.76 988.178 169.694Z" fill="#F9ECFF"/>
<path d="M979.129 169.178C978.841 170.11 979.381 171.106 980.34 171.402C981.297 171.697 982.307 171.181 982.595 170.248C982.883 169.314 982.34 168.318 981.382 168.023C980.424 167.727 979.417 168.245 979.129 169.178Z" fill="#F9ECFF"/>
<path d="M971.331 171.69C971.043 172.622 971.586 173.618 972.544 173.913C973.5 174.208 974.51 173.691 974.798 172.759C975.086 171.825 974.543 170.829 973.587 170.534C972.628 170.239 971.619 170.756 971.331 171.69Z" fill="#F9ECFF"/>
<path d="M968.294 179.832C966.618 181.363 964.06 184.213 962.833 188.191C960.193 196.746 955.86 201.164 949.614 201.653C950.73 200.403 952.46 197.835 954.152 192.793C956.692 185.22 961.097 181.156 968.294 179.832ZM947.958 202.775C948.008 202.791 948.062 202.799 948.117 202.801C955.738 202.943 960.906 198.274 963.914 188.525C965.675 182.817 970.487 179.483 970.536 179.451C970.746 179.306 970.828 179.04 970.736 178.803C970.638 178.565 970.388 178.416 970.139 178.447C961.38 179.403 955.961 183.85 953.078 192.436C950.482 200.171 947.859 201.753 947.832 201.767C947.617 201.892 947.509 202.145 947.576 202.386C947.63 202.574 947.775 202.719 947.958 202.775Z" fill="#F9ECFF"/>
<path d="M947.687 228.809L948.811 228.916C950.489 209.069 963.071 207.609 963.605 207.557C963.844 207.533 964.04 207.363 964.092 207.133C964.144 206.902 964.042 206.663 963.833 206.538C963.71 206.461 960.644 204.645 956.637 205.87C952.543 207.121 949.072 211.01 946.319 217.434L947.361 217.875C949.978 211.773 953.208 208.091 956.964 206.932C958.873 206.344 960.556 206.551 961.7 206.866C957.865 208.053 949.061 212.542 947.687 228.809Z" fill="#F9ECFF"/>
<path d="M959.162 226.737C958.717 229.068 958.29 233.342 959.507 238.65C961.553 247.571 958.862 250.828 957.759 251.744C950.208 238.669 956.217 229.908 959.162 226.737ZM957.42 253.07C957.552 253.11 957.698 253.104 957.831 253.042C958.058 252.938 963.34 250.33 960.609 238.423C958.855 230.78 960.69 225.236 960.71 225.181C960.79 224.948 960.701 224.69 960.492 224.547C960.286 224.407 960.009 224.414 959.815 224.568C959.682 224.673 946.612 235.348 957.096 252.817C957.171 252.942 957.289 253.029 957.42 253.07Z" fill="#F9ECFF"/>
<path d="M957.801 252.499C957.801 252.499 957.615 251.558 957.496 250.161C957.427 249.464 957.266 248.663 957.24 247.783C957.215 246.907 957.189 245.97 957.162 245.035C957.077 244.1 957.035 243.165 957.124 242.291C957.17 241.415 957.213 240.596 957.251 239.896C957.305 238.492 957.305 237.545 957.305 237.545L957.304 237.515C957.304 237.397 957.206 237.302 957.086 237.299C956.975 237.297 956.884 237.375 956.869 237.479C956.869 237.479 956.73 238.413 956.578 239.83C956.512 240.54 956.435 241.367 956.354 242.256C956.229 243.142 956.233 244.093 956.285 245.047C956.349 245.998 956.414 246.949 956.474 247.841C956.535 248.733 956.733 249.56 956.831 250.269C957.056 251.693 957.372 252.587 957.372 252.586L957.379 252.604C957.417 252.717 957.543 252.777 957.657 252.741C957.762 252.706 957.821 252.602 957.801 252.499Z" fill="#F9ECFF"/>
<path d="M991.125 112.992C990.635 115.318 990.137 119.584 991.296 124.894C992.709 131.362 990.297 136.019 989.209 137.704C982.079 124.682 988.145 116.108 991.125 112.992ZM988.995 139.277C989.033 139.288 989.071 139.297 989.113 139.301C989.298 139.318 989.478 139.245 989.597 139.105C989.79 138.876 994.304 133.387 992.4 124.679C990.724 117.004 992.686 111.505 992.706 111.45C992.791 111.218 992.706 110.957 992.501 110.811C992.294 110.663 992.016 110.668 991.819 110.82C991.687 110.924 978.449 121.404 988.668 139.018C988.741 139.143 988.859 139.235 988.995 139.277Z" fill="#F9ECFF"/>
<path d="M989.376 138.709C989.376 138.709 989.205 137.767 989.108 136.369C989.05 135.671 988.901 134.866 988.889 133.99C988.877 133.111 988.864 132.175 988.853 131.24C988.783 130.304 988.754 129.369 988.856 128.496C988.915 127.621 988.972 126.805 989.019 126.105C989.095 124.702 989.109 123.754 989.109 123.754L989.109 123.727C989.111 123.608 989.015 123.509 988.893 123.507C988.783 123.502 988.691 123.581 988.674 123.684C988.674 123.684 988.522 124.615 988.347 126.029C988.271 126.738 988.182 127.564 988.087 128.45C987.949 129.333 987.939 130.286 987.976 131.24C988.025 132.192 988.074 133.141 988.121 134.033C988.168 134.927 988.353 135.755 988.441 136.466C988.643 137.892 988.946 138.791 988.946 138.791L988.951 138.809C988.99 138.922 989.114 138.985 989.228 138.949C989.334 138.916 989.394 138.814 989.376 138.709Z" fill="#F9ECFF"/>
<path d="M997 51.1961C996.51 53.5235 996.011 57.7876 997.171 63.0988C998.584 69.5667 996.174 74.2246 995.086 75.9096C987.954 62.8866 994.02 54.3125 997 51.1961ZM994.873 77.483C994.91 77.4937 994.948 77.5014 994.991 77.5059C995.175 77.5227 995.355 77.4495 995.474 77.3106C995.667 77.0817 1000.18 71.592 998.275 62.8836C996.603 55.2298 998.562 49.7096 998.581 49.6546C998.664 49.4211 998.581 49.1617 998.376 49.0152C998.168 48.8702 997.893 48.8732 997.694 49.0243C997.562 49.1281 984.321 59.6099 994.545 77.2236C994.618 77.3487 994.736 77.4403 994.873 77.483Z" fill="#F9ECFF"/>
<path d="M995.247 76.9156C995.247 76.9156 995.075 75.9719 994.979 74.5751C994.921 73.876 994.772 73.0727 994.76 72.1941C994.748 71.317 994.736 70.3805 994.724 69.4454C994.654 68.509 994.625 67.5754 994.727 66.7026C994.786 65.8269 994.843 65.0106 994.891 64.3114C994.966 62.9075 994.98 61.9609 994.98 61.9609L994.981 61.9319C994.982 61.8147 994.886 61.7148 994.765 61.7133C994.654 61.709 994.562 61.7872 994.546 61.8899C994.546 61.8899 994.393 62.8206 994.219 64.2347C994.142 64.944 994.053 65.769 993.958 66.6563C993.821 67.5406 993.81 68.4916 993.847 69.4454C993.896 70.3978 993.945 71.3473 993.992 72.2404C994.039 73.132 994.224 73.9614 994.312 74.6721C994.514 76.0978 994.817 76.9966 994.817 76.9966L994.822 77.014C994.861 77.1269 994.984 77.1906 995.1 77.1544C995.205 77.1225 995.265 77.0198 995.247 76.9156Z" fill="#F9ECFF"/>
<path d="M973.615 73.8622C970.529 72.9105 967.937 72.6221 966.261 72.5543C970.087 70.4894 980.085 66.8297 991.304 76.7317C989.366 77.3518 984.146 78.501 978.055 75.5983C976.502 74.8572 975.008 74.2919 973.615 73.8622ZM964.115 73.6546C964.186 73.6762 964.263 73.6848 964.341 73.6776C964.4 73.6719 970.349 73.1527 977.575 76.5918C985.775 80.501 992.331 77.5652 992.604 77.4383C992.772 77.3604 992.888 77.2076 992.915 77.0273C992.944 76.8485 992.878 76.6654 992.741 76.5385C977.694 62.5961 964.064 72.5861 963.929 72.6884C963.731 72.837 963.658 73.0994 963.756 73.3287C963.821 73.4887 963.956 73.6055 964.115 73.6546Z" fill="#F9ECFF"/>
<path d="M992.45 76.7426C992.45 76.7426 991.63 76.239 990.26 75.7016C989.574 75.447 988.793 75.0714 987.919 74.8097C987.042 74.5495 986.108 74.2709 985.173 73.9938C984.234 73.7279 983.286 73.5071 982.373 73.4227C981.468 73.2974 980.624 73.1807 979.901 73.0808C978.453 72.9036 977.489 72.822 977.489 72.822C977.368 72.8121 977.264 72.8993 977.255 73.0161C977.248 73.1244 977.321 73.2201 977.427 73.2426L977.455 73.2496C977.455 73.2496 978.4 73.4663 979.814 73.7364C980.522 73.8602 981.348 74.0065 982.232 74.1612C983.125 74.2766 984.047 74.5298 984.961 74.8238C985.889 75.0629 986.817 75.3021 987.686 75.5244C988.557 75.748 989.32 76.0857 990.002 76.3093C991.367 76.7398 992.264 77.1309 992.264 77.1309C992.375 77.1787 992.504 77.1309 992.552 77.0226C992.596 76.9227 992.557 76.8087 992.466 76.7539L992.45 76.7426Z" fill="#F9ECFF"/>
<path d="M980.523 127.424C980.036 129.752 979.535 134.014 980.694 139.326C982.107 145.793 979.695 150.451 978.608 152.136C971.478 139.112 977.543 130.54 980.523 127.424ZM978.394 153.709C978.431 153.72 978.469 153.727 978.512 153.731C978.696 153.748 978.877 153.677 978.996 153.537C979.188 153.308 983.702 147.817 981.798 139.111C980.126 131.455 982.088 125.937 982.107 125.882C982.192 125.65 982.107 125.389 981.902 125.243C981.697 125.097 981.419 125.101 981.223 125.252C981.088 125.356 967.845 135.835 978.067 153.449C978.139 153.574 978.257 153.667 978.394 153.709Z" fill="#F9ECFF"/>
<path d="M978.774 153.14C978.774 153.14 978.603 152.198 978.506 150.801C978.449 150.101 978.299 149.297 978.288 148.419C978.276 147.541 978.263 146.606 978.251 145.67C978.181 144.736 978.152 143.801 978.254 142.928C978.314 142.053 978.37 141.236 978.418 140.537C978.494 139.133 978.508 138.186 978.508 138.186L978.508 138.158C978.509 138.039 978.413 137.941 978.292 137.937C978.182 137.934 978.09 138.012 978.073 138.114C978.073 138.114 977.92 139.046 977.746 140.46C977.67 141.169 977.58 141.996 977.485 142.881C977.348 143.765 977.337 144.716 977.374 145.67C977.424 146.623 977.473 147.574 977.519 148.465C977.566 149.357 977.752 150.186 977.839 150.898C978.041 152.324 978.344 153.222 978.344 153.222L978.35 153.24C978.388 153.353 978.513 153.416 978.627 153.379C978.732 153.347 978.792 153.244 978.774 153.14Z" fill="#F9ECFF"/>
<path d="M968.408 138.661C968.174 141.03 968.143 145.329 969.869 150.502C971.972 156.794 970.081 161.681 969.183 163.473C960.693 151.241 965.787 142.074 968.408 138.661ZM969.083 165.046C969.14 165.064 969.2 165.073 969.26 165.073C969.445 165.071 969.617 164.98 969.718 164.828C969.885 164.579 973.775 158.645 970.943 150.171C968.454 142.719 969.798 137.018 969.812 136.96C969.87 136.722 969.76 136.47 969.54 136.347C969.323 136.223 969.047 136.254 968.864 136.425C968.743 136.544 956.732 148.355 968.789 164.836C968.861 164.938 968.967 165.011 969.083 165.046Z" fill="#F9ECFF"/>
<path d="M969.452 164.456C969.452 164.456 969.18 163.535 968.932 162.153C968.8 161.464 968.565 160.679 968.458 159.805C968.351 158.933 968.239 158.002 968.125 157.071C967.954 156.148 967.823 155.219 967.831 154.34C967.795 153.462 967.763 152.644 967.735 151.942C967.658 150.536 967.569 149.592 967.569 149.592L967.565 149.563C967.554 149.446 967.448 149.357 967.327 149.366C967.217 149.376 967.135 149.462 967.129 149.564C967.129 149.564 967.079 150.51 967.059 151.935C967.06 152.649 967.061 153.482 967.062 154.373C967.022 155.269 967.114 156.217 967.254 157.162C967.405 158.105 967.558 159.047 967.7 159.931C967.844 160.813 968.118 161.62 968.281 162.319C968.636 163.718 969.033 164.583 969.033 164.583L969.041 164.6C969.091 164.707 969.221 164.757 969.332 164.709C969.432 164.667 969.482 164.558 969.452 164.456Z" fill="#F9ECFF"/>
<path d="M948.537 241.269C935.236 247.446 926.545 241.174 923.333 238.078C925.726 238.722 930.029 239.46 935.395 238.541C943.236 237.207 947.234 240.053 948.537 241.269ZM931.339 244.061C936.009 245.503 942.19 245.634 949.724 241.937C949.874 241.865 949.981 241.73 950.017 241.57C950.055 241.411 950.015 241.242 949.914 241.111C949.741 240.889 945.538 235.688 935.187 237.453C927.359 238.79 921.769 236.403 921.713 236.383C921.489 236.282 921.207 236.344 921.049 236.538C920.889 236.729 920.883 237.003 921.033 237.207C921.094 237.287 924.68 242.007 931.339 244.061Z" fill="#F9ECFF"/>
<path d="M949.431 241.231C949.431 241.231 948.463 241.343 947.034 241.356C946.319 241.371 945.494 241.471 944.597 241.432C943.701 241.392 942.745 241.349 941.789 241.307C940.833 241.319 939.877 241.295 938.989 241.142C938.098 241.034 937.266 240.93 936.553 240.842C935.122 240.686 934.156 240.617 934.156 240.617L934.127 240.614C934.005 240.607 933.902 240.696 933.895 240.814C933.889 240.921 933.965 241.015 934.069 241.038C934.069 241.038 935.017 241.242 936.455 241.495C937.176 241.612 938.017 241.748 938.919 241.893C939.818 242.079 940.789 242.145 941.764 242.165C942.736 242.172 943.71 242.179 944.622 242.184C945.533 242.19 946.386 242.058 947.114 242.014C948.576 241.9 949.503 241.657 949.503 241.655L949.52 241.651C949.637 241.619 949.704 241.502 949.672 241.388C949.641 241.284 949.538 241.218 949.431 241.231Z" fill="#F9ECFF"/>
<path d="M928.594 177.64C929.572 178.617 931.801 181.065 936.52 187.068C942.246 194.349 943.233 204.039 943.334 208.923C942.141 206.141 939.744 201.849 935.211 197.745C927.607 190.855 928.191 180.785 928.594 177.64ZM943.677 212.599C943.742 212.619 943.81 212.627 943.879 212.623C944.157 212.609 944.38 212.398 944.402 212.126C944.457 211.507 945.622 196.842 937.411 186.399C930.2 177.23 928.679 176.175 928.449 176.057C928.29 175.975 928.106 175.971 927.948 176.044C927.79 176.117 927.676 176.258 927.64 176.426C927.612 176.561 924.901 189.898 934.452 198.551C941.577 205.004 943.273 212.114 943.289 212.185C943.336 212.385 943.486 212.54 943.677 212.599Z" fill="#F9ECFF"/>
<path d="M943.891 211.266C943.891 211.266 943.87 209.737 943.415 207.522C943.134 206.429 942.869 205.127 942.366 203.802C941.941 202.449 941.353 201.058 940.739 199.676C940.162 198.276 939.391 196.971 938.724 195.722C938.079 194.457 937.359 193.346 936.712 192.412C935.426 190.545 934.57 189.3 934.57 189.3C934.482 189.173 934.307 189.138 934.177 189.222C934.055 189.301 934.02 189.459 934.091 189.583L934.101 189.602C934.101 189.602 934.843 190.899 935.957 192.848C936.557 193.794 937.176 194.942 937.792 196.193C938.428 197.434 939.165 198.729 939.707 200.109C940.333 201.454 940.934 202.809 941.37 204.123C941.59 204.778 941.879 205.392 942.04 206.002C942.223 206.609 942.397 207.181 942.558 207.71C942.819 208.775 943.086 209.674 943.172 210.294C943.295 210.913 943.326 211.29 943.326 211.29C943.339 211.444 943.476 211.558 943.631 211.548C943.78 211.536 943.893 211.41 943.891 211.266Z" fill="#F9ECFF"/>
<path d="M932.022 271.636C933.304 272.031 934.6 272.725 935.35 273.535C936.904 275.173 937.527 277.881 936.946 280.441C936.211 283.834 933.737 286.431 930.324 287.395C926.89 288.364 923.254 287.504 920.827 285.149C919.493 283.886 918.47 282.173 917.86 280.186C916.311 275.208 917.251 269.766 920.369 265.631C923.486 261.496 928.343 259.226 934.039 259.235C938.411 259.203 942.676 260.164 946.38 262.017C954.104 265.709 959.257 273.224 962.22 278.879C964.629 283.52 966.217 288.012 967.251 292.082C966.033 287.976 964.319 283.502 961.908 279.029C958.887 273.483 953.688 266.14 946.06 262.647C942.539 260.943 938.305 260.049 934.145 260.134C927.106 260.258 921.768 263.746 919.498 269.705C917.494 274.966 918.488 281.023 921.863 284.107C923.952 286.044 926.993 286.719 929.818 285.871C932.609 285.031 934.619 282.859 935.189 280.06C935.61 278.012 935.117 275.928 933.936 274.756C932.642 273.393 931.1 273.328 929.981 273.285C928.685 273.234 928.456 273.157 928.398 272.349C928.365 271.892 928.534 271.616 928.942 271.45C929.659 271.159 930.834 271.269 932.022 271.636ZM969.426 309.014C969.481 309.031 969.543 309.039 969.613 309.041C969.914 309.042 970.165 308.784 970.179 308.492C970.396 303.88 970.149 291.72 963.224 278.39C963.224 278.39 963.224 278.39 963.224 278.39C960.181 272.581 954.873 264.854 946.874 261.03C943.01 259.099 938.566 258.096 934.022 258.13C927.965 258.118 922.791 260.547 919.458 264.965C916.129 269.378 915.129 275.183 916.78 280.493C917.445 282.659 918.573 284.542 920.042 285.933C922.76 288.571 926.827 289.536 930.651 288.457C934.463 287.379 937.23 284.476 938.048 280.69C938.72 277.747 938.003 274.718 936.176 272.794C934.42 270.899 930.397 269.655 928.496 270.429C927.642 270.775 927.205 271.479 927.271 272.408C927.4 274.288 928.814 274.345 929.952 274.391C930.972 274.43 932.135 274.475 933.126 275.515C933.893 276.276 934.477 277.898 934.082 279.828C933.591 282.229 931.869 284.094 929.471 284.815C927.042 285.546 924.415 284.967 922.631 283.308C919.576 280.517 918.703 274.963 920.556 270.104C922.661 264.587 927.626 261.355 934.184 261.24C938.17 261.156 942.22 262.011 945.582 263.643C952.934 267.008 957.975 274.143 960.912 279.535C967.41 291.585 968.753 303.641 969.029 308.267C969.041 308.482 969.066 308.903 969.426 309.014Z" fill="#F9ECFF"/>
<path d="M952.761 298.987C952.74 299.037 952.72 299.102 952.696 299.179C952.555 299.627 952.229 300.675 950.776 301.792C950.053 302.339 948.848 303.006 947.228 303.063C945.701 303.158 943.956 302.458 942.766 301.289C940.455 299.192 939.34 296.68 939.527 294.002C939.725 291.186 941.41 288.471 944.039 286.741C946.715 284.977 949.922 284.356 953.067 284.991C957.11 285.815 960.883 288.616 963.911 293.091C966.643 297.134 968.14 301.956 968.864 305.271C967.671 302.491 965.842 298.574 963.518 295.017C959.992 289.619 956.341 286.54 952.591 285.866C949.949 285.389 947.292 286.129 944.698 288.066C944.697 288.067 944.697 288.067 944.697 288.067C942.599 289.636 941.354 291.83 941.281 294.084C941.214 296.205 942.174 298.206 944.062 299.869C945.143 300.838 946.478 301.204 947.817 300.907C949.01 300.64 950.025 299.849 950.398 298.89C950.461 298.753 950.491 298.657 950.508 298.603C950.519 298.576 950.527 298.549 950.536 298.522C950.721 297.746 951.373 297.602 951.876 297.716C952.366 297.839 952.894 298.228 952.761 298.987ZM945.013 303.875C945.772 304.109 946.552 304.214 947.299 304.168C949.203 304.102 950.624 303.315 951.478 302.668C953.208 301.339 953.62 300.014 953.776 299.516C953.802 299.468 953.848 299.317 953.859 299.265C954.144 297.867 953.2 296.895 952.116 296.639C951.045 296.397 949.787 296.861 949.445 298.217C949.439 298.23 949.435 298.242 949.431 298.257C949.421 298.286 949.402 298.349 949.352 298.458C949.102 299.102 948.38 299.644 947.552 299.829C946.992 299.953 945.891 300.018 944.813 299.056C943.184 297.618 942.353 295.917 942.412 294.135C942.473 292.21 943.559 290.321 945.392 288.948C947.726 287.205 950.084 286.534 952.402 286.953C955.784 287.56 959.22 290.476 962.571 295.603C965.694 300.385 967.919 305.867 968.87 308.208C969.507 309.772 969.538 309.874 969.994 309.864C970.235 309.858 970.449 309.693 970.518 309.47C970.762 308.678 969.501 299.375 964.851 292.492C961.649 287.762 957.672 284.804 953.279 283.909C949.835 283.213 946.328 283.892 943.399 285.821C940.491 287.738 938.621 290.761 938.401 293.912C938.193 296.893 939.465 299.793 941.99 302.079C942.836 302.91 943.899 303.532 945.013 303.875Z" fill="#F9ECFF"/>
<path d="M946.769 271.408C953.158 273.378 959.604 280.639 964.436 291.099C959.499 283.216 953.049 276.68 946.773 273.46C945.059 272.581 943.635 272.396 942.57 272.928C941.241 273.589 941.017 275.089 941.008 275.152C940.983 275.339 941.062 275.525 941.217 275.639C941.35 275.736 941.647 275.989 941.525 276.244C941.439 276.425 941.16 276.573 940.811 276.489C940.783 276.482 940.753 276.473 940.723 276.463C939.796 276.178 939.556 275.107 939.738 274.146C940.088 272.308 941.866 270.535 944.947 270.991C945.552 271.081 946.161 271.219 946.769 271.408ZM968.044 299.741C968.15 299.775 968.27 299.775 968.38 299.734C968.642 299.641 968.78 299.363 968.693 299.1C963.209 282.486 954.167 271.322 945.089 269.975C941.494 269.444 939.159 271.569 938.708 273.945C938.379 275.683 939.181 277.15 940.572 277.485C941.367 277.677 942.166 277.343 942.477 276.687C942.686 276.247 942.678 275.612 942.11 275.051C942.217 274.715 942.476 274.128 943.062 273.841C943.801 273.478 944.922 273.658 946.298 274.367C954.386 278.519 962.794 288.365 967.715 299.451C967.779 299.595 967.902 299.699 968.044 299.741Z" fill="#F9ECFF"/>
<path d="M997.732 256.899C997.628 256.867 997.513 256.861 997.401 256.888C989.99 258.617 988.241 270.209 986.394 282.481C985.866 285.98 985.32 289.598 984.636 293.071C983.196 300.378 980.364 304.382 977.637 306.573C980.364 303.801 983.11 299.056 984.141 290.963C984.378 289.111 984.536 286.752 984.719 284.019C985.382 274.166 986.384 259.274 992.688 255.412C995.517 253.681 998.32 253.365 1000.35 254.554C1001.58 255.269 1002.37 256.465 1002.32 257.532C1002.3 257.981 1002.1 258.59 1001.31 258.933C999.536 259.704 998.152 257.292 998.093 257.189C998.015 257.047 997.881 256.946 997.732 256.899ZM970.639 310.396C970.691 310.413 970.745 310.422 970.801 310.425C970.917 310.429 982.43 310.69 985.849 293.315C986.539 289.819 987.086 286.188 987.616 282.674C989.365 271.074 991.018 260.101 997.277 258.181C998.104 259.381 999.819 260.911 1001.82 260.043C1002.87 259.59 1003.5 258.701 1003.55 257.607C1003.63 256.076 1002.62 254.47 1000.97 253.516C998.515 252.091 995.253 252.405 992.022 254.383C985.192 258.568 984.206 273.223 983.485 283.922C983.303 286.635 983.145 288.979 982.915 290.797C980.773 307.589 970.821 309.207 970.722 309.221C970.406 309.266 970.181 309.539 970.202 309.851C970.22 310.107 970.398 310.321 970.639 310.396Z" fill="#F9ECFF"/>
<path d="M1007.46 276.837C1007.43 276.827 1007.4 276.822 1007.37 276.818C1001.07 276.035 996.256 284.484 991.157 293.429C989.705 295.975 988.204 298.605 986.64 301.086C983.337 306.313 979.936 308.595 977.156 309.505C980.108 308.145 983.663 305.268 986.878 299.319C987.613 297.958 988.44 296.186 989.397 294.132C992.847 286.717 998.067 275.515 1004.13 274.336C1006.86 273.806 1009.13 274.363 1010.37 275.86C1011.11 276.76 1011.37 277.909 1011.01 278.718C1010.86 279.059 1010.53 279.474 1009.81 279.512C1008.22 279.596 1007.84 277.344 1007.82 277.248C1007.79 277.054 1007.65 276.894 1007.46 276.837ZM970.939 310.611C972.462 311.081 980.419 312.859 987.512 301.622C989.09 299.125 990.595 296.483 992.051 293.927C996.874 285.472 1001.43 277.473 1006.89 277.78C1007.17 278.945 1008.05 280.607 1009.88 280.513C1010.83 280.462 1011.59 279.957 1011.95 279.129C1012.47 277.97 1012.16 276.441 1011.16 275.235C1009.66 273.434 1007.02 272.749 1003.92 273.351C997.346 274.629 992.211 285.655 988.464 293.704C987.514 295.744 986.693 297.505 985.972 298.842C979.274 311.233 971.059 309.589 970.978 309.571C970.718 309.514 970.461 309.661 970.382 309.907C970.306 310.155 970.436 310.422 970.679 310.522C970.689 310.525 970.778 310.562 970.939 310.611Z" fill="#F9ECFF"/>
<path d="M982.408 239.439C982.261 239.394 982.097 239.408 981.956 239.485C974.443 243.743 977.007 260.654 979.273 275.574L979.428 276.596C981.502 290.306 979.146 298.444 976.306 303.14C979.103 297.502 981.228 287.885 977.619 272.485C973.509 254.967 973.444 243.831 977.426 239.385C979.445 237.127 981.813 236.136 983.922 236.662C985.157 236.99 986.203 237.834 986.442 238.793C986.545 239.2 986.537 239.79 985.928 240.303C984.572 241.439 982.658 239.595 982.642 239.577C982.573 239.511 982.494 239.466 982.408 239.439ZM970.355 310.067C970.474 310.103 970.605 310.1 970.728 310.054C971.304 309.835 984.769 304.358 980.544 276.448L980.389 275.428C978.324 261.812 975.761 244.921 982.189 240.656C983.237 241.504 985.149 242.421 986.669 241.147C987.469 240.476 987.785 239.527 987.54 238.545C987.195 237.174 985.913 236.029 984.185 235.59C981.652 234.958 978.877 236.072 976.572 238.65C972.28 243.44 972.263 254.584 976.52 272.719C982.996 300.359 970.33 308.993 970.201 309.078C969.963 309.233 969.884 309.541 970.021 309.792C970.094 309.927 970.216 310.023 970.355 310.067Z" fill="#F9ECFF"/>
<path d="M989.407 81.6572C991.205 82.2115 992.935 83.0232 994.536 84.0853C1000.91 88.3112 1004.53 95.8895 1004.75 105.432C1005.37 117.293 999.433 129.514 994.34 137.679C988.911 146.385 981.727 154.259 972.52 161.561C977.441 156.29 984.196 147.93 992.099 135.567C1000.25 122.799 1005.22 104.596 997.933 92.7088C994.945 87.6908 989.659 84.6185 983.807 84.4792C979.116 84.3737 974.962 86.2756 972.966 89.4437C970.117 95.044 971.441 98.2261 973.051 99.917C973.665 100.561 974.682 101.199 975.27 101.415C976.18 101.829 976.352 102.697 976.102 103.411C975.833 104.177 975.041 104.78 974.005 104.405C969.805 102.657 967.39 99.17 967.412 94.8485C967.442 89.3973 971.3 83.9995 976.584 82.0146C980.729 80.4657 985.25 80.3743 989.407 81.6572ZM963.862 169.013C963.884 169.02 963.91 169.026 963.935 169.03C964.021 169.045 964.191 168.983 964.447 168.843C964.784 168.657 965.267 168.331 965.883 167.85C978.805 158.969 988.438 149.279 995.306 138.265C1000.48 129.968 1006.51 117.533 1005.88 105.406C1005.65 95.5096 1001.85 87.6078 995.16 83.1737C989.55 79.4514 982.449 78.6341 976.167 80.982C970.379 83.1554 966.316 88.8472 966.283 94.8259C966.259 99.6216 968.929 103.487 973.609 105.434C975.395 106.035 976.72 105.062 977.169 103.783C977.579 102.612 977.237 101.166 975.852 100.47C975.73 100.391 975.577 100.342 975.434 100.295C975.421 100.291 975.394 100.284 975.371 100.279C974.777 99.993 973.579 99.2094 972.922 97.7661C972.008 95.7544 972.353 93.1378 973.955 89.9909C975.72 87.1929 979.5 85.4879 983.797 85.5863C989.263 85.7073 994.176 88.5799 996.963 93.2616C1004.01 104.752 999.112 122.487 991.137 134.971C977.685 156.019 968.17 164.583 964.981 167.11C964.64 167.345 964.294 167.578 963.947 167.812C963.941 167.816 963.937 167.82 963.93 167.824C963.671 168.013 963.374 168.227 963.473 168.609C963.52 168.801 963.671 168.954 963.862 169.013Z" fill="#F9ECFF"/>
<path d="M1026.45 50.4545C1023.5 49.5448 1020.3 49.7422 1017.41 51.0852C1007.72 55.4364 1003.15 69.0745 1003 79.9032C1002.93 85.0562 1003.17 89.7066 1003.44 93.1265C1002.42 89.5524 1001.37 85.1858 1001.04 80.207C1000.46 71.634 1003.03 62.9023 1008.1 56.2521C1012.2 50.5255 1017.55 47.4185 1023.16 47.491C1027.83 47.5511 1032.22 49.8578 1034.9 53.6601C1037.28 57.0369 1037.38 61.8892 1035.16 65.1935C1034.12 66.7231 1031.72 69.1531 1027.25 68.2264C1026.8 68.0799 1026.59 67.7793 1026.52 67.5372C1026.41 67.1486 1026.54 66.6799 1026.83 66.3993C1027.05 66.1803 1027.34 66.0971 1027.68 66.1526C1027.69 66.1526 1027.69 66.1541 1027.7 66.1557C1028.26 66.3299 1029.2 66.2775 1029.74 66.1618C1031.48 65.7902 1033.68 64.3655 1034.28 59.6997C1034.38 56.8241 1032.61 53.8729 1029.64 51.9517C1028.63 51.2964 1027.56 50.7968 1026.45 50.4545ZM1004.43 99.4668C1004.52 99.493 1004.61 99.4992 1004.71 99.4822C1005 99.4267 1005.19 99.1615 1005.15 98.8716C1005.14 98.7899 1003.99 90.4159 1004.13 79.934C1004.27 69.4368 1008.64 56.2459 1017.9 52.0889C1021.52 50.4006 1025.69 50.6997 1029.03 52.8691C1031.66 54.5776 1033.24 57.1541 1033.15 59.5949C1032.83 62.0773 1031.98 63.7827 1030.64 64.6169C1029.6 65.2567 1028.56 65.1889 1028.14 65.1257H1028.14C1028.14 65.1241 1028.13 65.1241 1028.13 65.1226C1028.03 65.0918 1027.9 65.0563 1027.77 65.0501C1027.1 64.9653 1026.48 65.1611 1026.02 65.6114C1025.44 66.1726 1025.21 67.0361 1025.43 67.8132C1025.63 68.5148 1026.16 69.0436 1026.91 69.2734C1026.94 69.2826 1026.97 69.2919 1027 69.2996C1030.77 70.0829 1034.08 68.8077 1036.1 65.8118C1038.61 62.0897 1038.5 56.8395 1035.83 53.0434C1032.93 48.9388 1028.2 46.4518 1023.16 46.3855C1017.16 46.3084 1011.49 49.5787 1007.18 55.5952C1001.97 62.4381 999.314 71.4336 999.911 80.264C1000.36 86.9913 1002.08 92.5853 1003.33 96.6683C1003.59 97.544 1003.84 98.3489 1004.05 99.0798C1004.1 99.2694 1004.25 99.4113 1004.43 99.4668Z" fill="#F9ECFF"/>
<path d="M987.574 68.3847C976.709 67.4505 972.378 55.5442 971.375 52.1906C986.704 56.0726 987.605 65.9607 987.574 68.3847ZM984.134 68.8358C985.357 69.2144 986.67 69.4551 988.091 69.5262C988.388 69.5399 988.644 69.3264 988.674 69.0372C988.688 68.9009 989.841 55.2898 970.705 50.8946C970.515 50.8507 970.318 50.9052 970.182 51.0384C970.047 51.1702 969.988 51.3624 970.031 51.5471C970.067 51.7031 973.382 65.5186 984.134 68.8358Z" fill="#F9ECFF"/>
<path d="M988.259 68.8238C988.259 68.8238 987.693 68.1765 986.81 67.2435C985.897 66.3354 984.709 65.1008 983.583 63.8207C982.384 62.6051 981.186 61.388 980.286 60.4755C979.371 59.5763 978.731 58.9978 978.731 58.9978L978.718 58.9875C978.628 58.9069 978.489 58.9113 978.408 58.9978C978.335 59.0754 978.333 59.194 978.398 59.276C978.398 59.276 978.935 59.9439 979.784 60.912C980.649 61.8669 981.802 63.1397 982.956 64.4124C985.314 66.9213 987.951 69.1255 987.951 69.1255C988.045 69.2031 988.184 69.1929 988.262 69.1036C988.332 69.0215 988.328 68.9029 988.259 68.8238Z" fill="#F9ECFF"/>
<path d="M409.163 43.4358C409.163 43.4358 407.953 43.36 405.824 43.4343C403.701 43.5117 400.638 43.7144 397.11 44.5534C395.346 44.99 393.493 45.5859 391.73 46.6262C389.97 47.6618 388.314 49.123 386.735 50.7236C385.14 52.332 383.686 54.1586 382.019 55.9527C381.161 56.818 380.295 57.7824 378.907 58.2947C378.253 58.5641 377.298 58.5037 376.705 58.2251C375.894 57.9371 375.381 57.0811 375.338 56.3489C375.238 54.8598 375.885 53.6756 376.53 52.5889C377.216 51.5162 378.044 50.5673 378.933 49.7051C380.722 47.9884 382.754 46.6293 384.82 45.5302C388.967 43.363 393.252 42.1603 396.98 41.8507C400.714 41.4962 403.813 41.9451 405.925 42.2764C408.032 42.6309 409.237 42.8337 409.237 42.8337C409.406 42.8584 409.52 43.0132 409.492 43.1788C409.466 43.3321 409.318 43.442 409.163 43.4358ZM409.141 43.4327C409.141 43.4327 407.929 43.2671 405.809 42.9761C403.705 42.6912 400.669 42.4095 397.062 42.7764C393.457 43.1123 389.321 44.3228 385.331 46.4605C383.35 47.5395 381.413 48.8692 379.746 50.5038C378.917 51.3227 378.158 52.219 377.55 53.1911C376.97 54.1493 376.472 55.2669 376.571 56.2034C376.613 56.6663 376.821 56.9712 377.174 57.1167C377.69 57.335 378.037 57.335 378.538 57.1848C379.484 56.8675 380.369 56.0099 381.178 55.1833C382.801 53.4744 384.312 51.6199 385.962 49.9914C387.607 48.3583 389.322 46.8707 391.21 45.7825C393.093 44.6943 395.094 44.072 396.899 43.6479C400.555 42.8089 403.668 42.7624 405.82 42.7268C407.98 42.7175 409.215 42.8321 409.215 42.8321L409.141 43.4327Z" fill="#F9ECFF"/>
<path d="M404.073 39.9725C404.073 39.9725 403.13 39.7405 401.427 39.5464C399.731 39.3476 397.26 39.2008 394.37 39.5843C392.914 39.7989 391.42 40.154 389.903 40.8593C388.408 41.5568 386.877 42.521 385.334 43.5214C383.779 44.5266 382.241 45.6628 380.487 46.6664C379.601 47.1366 378.645 47.6637 377.399 47.6621C376.798 47.6574 376.106 47.3844 375.672 46.9757C375.148 46.5244 374.945 45.7795 375.013 45.1736C375.172 43.9427 375.87 43.0528 376.578 42.2874C377.309 41.5268 378.137 40.9051 378.996 40.367C380.719 39.294 382.566 38.5602 384.386 38.0079C388.021 36.9175 391.622 36.6003 394.637 36.8812C397.662 37.1479 400.066 37.9369 401.7 38.4939C403.325 39.0651 404.254 39.3918 404.254 39.3918C404.416 39.4439 404.501 39.6159 404.445 39.7737C404.393 39.9236 404.225 40.0056 404.073 39.9725ZM404.056 39.9678C404.056 39.9678 403.113 39.6758 401.463 39.1661C399.828 38.6549 397.454 38.0426 394.544 37.8106C391.639 37.5787 388.196 37.9258 384.695 39.0225C382.959 39.5733 381.202 40.3023 379.616 41.3185C378.098 42.2969 376.469 43.7281 376.244 45.2651C376.212 45.6217 376.296 45.9042 376.516 46.1046C376.802 46.3587 377.079 46.4597 377.464 46.4912C378.222 46.5181 379.113 46.1204 379.93 45.6786C381.587 44.7633 383.164 43.6335 384.746 42.6377C386.337 41.6389 387.872 40.6921 389.483 39.9614C391.073 39.2419 392.763 38.8553 394.254 38.6628C397.289 38.2888 399.809 38.5981 401.535 38.8458C403.266 39.1093 404.238 39.387 404.238 39.387L404.056 39.9678Z" fill="#F9ECFF"/>
<path d="M398.874 35.7884C398.874 35.7884 398.182 35.4955 396.884 35.1462C396.23 35.0029 395.446 34.776 394.516 34.6714C393.599 34.5088 392.541 34.4734 391.407 34.4219C390.848 34.4492 390.265 34.4782 389.662 34.5072C389.05 34.5748 388.398 34.7325 387.738 34.8468C386.503 35.1043 385.141 35.5824 383.816 36.1216C382.471 36.6656 381.153 37.3513 379.711 38.0112C378.975 38.2961 378.214 38.7259 377.124 38.573C376.87 38.5537 376.573 38.404 376.312 38.2527C376.121 38.0708 376.082 38.1336 375.793 37.7553C375.429 37.3062 375.363 36.6399 375.524 36.1683C376.241 34.2513 377.897 33.5302 379.322 32.8413C380.817 32.2184 382.35 31.8755 383.857 31.6647C385.292 31.4683 386.823 31.4522 388.17 31.5021C389.55 31.5697 390.828 31.7967 391.997 32.0638C394.323 32.6578 396.084 33.593 397.286 34.2191C398.475 34.871 399.154 35.2444 399.154 35.2444C399.302 35.3248 399.355 35.51 399.27 35.6564C399.191 35.7949 399.018 35.848 398.874 35.7884ZM398.862 35.7836C398.862 35.7836 398.166 35.444 396.948 34.8484C395.732 34.2674 393.974 33.5092 391.756 32.9684C390.638 32.7334 389.418 32.5355 388.105 32.4936C387.454 32.4083 386.776 32.521 386.089 32.5258C385.402 32.5355 384.721 32.6047 383.976 32.7173C382.579 32.9362 381.126 33.2887 379.778 33.8778C378.494 34.4525 377.045 35.3683 376.719 36.458C376.638 36.7155 376.669 36.8958 376.786 37.0471C376.681 37.0133 377.011 37.2596 377.096 37.3384C377.186 37.3465 377.222 37.4093 377.364 37.4173C377.838 37.5316 378.586 37.2499 379.255 36.9715C380.631 36.3711 382.024 35.6773 383.415 35.1397C384.821 34.5973 386.161 34.1418 387.566 33.8682C388.235 33.7636 388.866 33.6203 389.511 33.5591C390.173 33.535 390.813 33.5125 391.427 33.4899C393.846 33.5575 395.778 34.0758 397.101 34.4669C398.416 34.8903 399.142 35.2395 399.142 35.2395L398.862 35.7836Z" fill="#F9ECFF"/>
<path d="M447.638 155.505C447.638 155.505 446.257 154.77 443.917 153.378C441.579 151.98 438.264 149.938 434.503 147.171C432.632 145.774 430.659 144.185 428.717 142.332C426.818 140.48 424.822 138.319 423.594 135.612C422.34 132.955 421.571 130.003 420.917 127.059C420.567 125.611 420.266 124.079 419.573 122.911C419.227 122.346 418.733 121.949 418.173 121.86C417.46 121.72 417.152 121.901 416.77 122.428C416.095 123.507 416.059 125.1 416.218 126.522C416.386 127.98 416.802 129.414 417.334 130.786C418.427 133.517 419.998 136.059 421.851 138.186C423.721 140.316 425.878 142.092 427.984 143.675C430.093 145.262 432.202 146.625 434.184 147.822C442.116 152.66 447.911 154.958 447.911 154.958L447.638 155.505ZM447.671 155.52C447.671 155.52 441.765 153.325 433.688 148.602C431.677 147.407 429.536 146.045 427.38 144.449C425.228 142.854 423.018 141.062 421.052 138.859C419.099 136.642 417.458 134.069 416.274 131.205C415.7 129.767 415.241 128.258 415.039 126.676C414.882 125.107 414.781 123.415 415.734 121.783C415.987 121.389 416.37 121.003 416.884 120.789C417.389 120.561 418.011 120.611 418.377 120.686C419.392 120.849 420.16 121.565 420.593 122.299C421.441 123.8 421.674 125.333 422.027 126.806C422.646 129.761 423.358 132.61 424.536 135.186C425.676 137.761 427.542 139.8 429.407 141.65C431.29 143.478 433.237 145.051 435.067 146.458C438.736 149.268 441.996 151.361 444.292 152.795C446.593 154.222 447.945 154.973 447.945 154.973C448.093 155.056 448.143 155.239 448.057 155.387C447.979 155.52 447.811 155.573 447.671 155.52Z" fill="#F9ECFF"/>
<path d="M450.049 157.914C450.049 157.914 444.891 156.545 437.353 153.879C435.469 153.211 433.456 152.409 431.351 151.493C429.277 150.568 427.013 149.516 425.003 147.978C422.99 146.429 421.289 144.425 419.74 142.355C418.956 141.34 418.2 140.248 417.308 139.487C416.87 139.107 416.373 138.922 416.007 139.003C415.461 139.111 415.246 139.351 415.135 139.829C414.943 140.811 415.481 142.058 416.114 143.084C416.77 144.137 417.598 145.102 418.498 145.983C420.294 147.759 422.402 149.179 424.505 150.431C428.711 152.96 433.183 154.265 437.08 154.986C440.98 155.735 444.305 156.154 446.606 156.594C448.92 157.016 450.209 157.327 450.209 157.327L450.049 157.914ZM450.074 157.919C450.074 157.919 448.762 157.638 446.474 157.275C444.18 156.89 440.863 156.561 436.891 155.882C432.938 155.185 428.305 153.875 423.964 151.312C421.808 150.045 419.615 148.622 417.697 146.777C416.738 145.863 415.841 144.854 415.102 143.7C414.412 142.541 413.678 141.261 413.923 139.6C414.016 138.754 414.945 137.913 415.749 137.847C416.733 137.659 417.547 138.135 418.082 138.599C419.172 139.568 419.874 140.664 420.656 141.69C422.165 143.765 423.763 145.691 425.655 147.191C427.568 148.68 429.696 149.683 431.766 150.627C433.831 151.548 435.828 152.345 437.686 153.045C445.118 155.855 450.232 157.332 450.232 157.332C450.396 157.377 450.489 157.545 450.441 157.706C450.395 157.86 450.231 157.951 450.074 157.919Z" fill="#F9ECFF"/>
<path d="M451.451 159.21C451.451 159.212 446.943 159.205 440.196 158.737C438.51 158.608 436.687 158.432 434.762 158.174C432.859 157.9 430.776 157.588 428.75 156.922C426.7 156.222 424.756 155.193 422.872 154.038C421.935 153.474 421.004 152.839 420.088 152.448C419.651 152.253 419.173 152.227 418.981 152.317C418.929 152.308 418.764 152.448 418.661 152.506C418.641 152.505 418.585 152.606 418.535 152.639C418.471 152.755 418.423 152.882 418.438 153.058C418.474 153.797 419.207 154.677 419.994 155.289C420.803 155.926 421.735 156.447 422.713 156.855C424.666 157.677 426.779 158.117 428.834 158.385C432.969 158.918 436.902 159.052 440.261 159.113C443.622 159.188 446.427 159.131 448.379 159.009C449.357 158.948 450.115 158.861 450.601 158.787C451.104 158.698 451.384 158.615 451.384 158.615L451.451 159.21ZM451.54 159.199C451.54 159.199 451.28 159.285 450.747 159.396C450.193 159.501 449.411 159.609 448.425 159.696C446.447 159.874 443.625 160.01 440.237 160.022C436.852 159.992 432.902 159.895 428.681 159.392C426.568 159.129 424.379 158.72 422.261 157.872C421.206 157.453 420.18 156.908 419.243 156.196C418.355 155.461 417.368 154.612 417.202 153.113C417.181 152.738 417.296 152.314 417.535 151.965C417.688 151.805 417.777 151.651 418.006 151.512C418.147 151.436 418.194 151.368 418.413 151.28C419.279 150.913 419.988 151.16 420.56 151.382C421.68 151.887 422.559 152.534 423.486 153.106C425.305 154.266 427.184 155.297 429.093 155.978C431.047 156.636 433.007 156.944 434.911 157.235C436.807 157.514 438.619 157.681 440.287 157.858C446.979 158.487 451.474 158.605 451.474 158.605C451.645 158.608 451.776 158.748 451.77 158.916C451.765 159.047 451.675 159.155 451.556 159.195L451.54 159.199Z" fill="#F9ECFF"/>
<path d="M454.877 304.342L455 304.488C455.103 304.614 455.379 304.951 455.494 304.961L455.644 304.846C455.664 304.652 455.12 304.002 454.683 303.479C453.479 302.035 451.464 299.623 450.482 295.511C448.272 287.002 454.477 276.431 462.333 263.047C464.259 259.767 466.251 256.373 468.275 252.753C476.721 237.57 481.034 226.957 481.175 211.084C481.238 203.176 479.823 195.212 477.08 188.049C467.821 163.883 448.306 157.531 434.09 161.859C434.059 161.869 434.027 161.878 433.995 161.888C423.707 165.063 414.832 174.695 418.127 189.115C419.626 195.321 422.633 200.081 427.068 203.256C431.356 206.363 435.766 207.539 439.825 206.658C443.971 205.754 446.844 202.957 448.175 200.633C449.259 198.743 449.309 196.907 448.798 196.068C448.527 195.624 448.202 195.631 448.093 195.635C447.748 195.643 446.456 195.931 444.574 199.238C443.361 201.519 440.801 203.003 437.755 203.182C432.792 203.48 427.794 200.606 424.378 195.495C419.446 187.641 418.978 179.785 423.05 173.358C427.329 166.603 436.06 162.707 445.292 163.436C458.219 164.451 469.091 173.702 475.113 188.815C477.867 195.709 479.346 203.421 479.392 211.116C479.471 228.102 474.173 239.318 467.241 252.216C465.291 255.818 463.349 259.224 461.471 262.521C453.707 276.142 447.574 286.902 449.993 295.626C450.758 298.611 452.218 301.215 454.877 304.342ZM455.819 305.998C455.646 306.052 455.492 306.058 455.371 306.047C454.791 305.991 454.407 305.52 454.125 305.178L454.018 305.048C454.017 305.047 454.017 305.047 454.017 305.046C451.245 301.788 449.72 299.059 448.914 295.918C446.379 286.772 452.612 275.841 460.501 261.999C462.375 258.709 464.314 255.307 466.257 251.717C474.285 236.783 478.347 226.406 478.278 211.137C478.233 203.575 476.78 195.997 474.076 189.225C468.208 174.509 457.679 165.504 445.188 164.521C436.368 163.829 428.049 167.521 423.996 173.923C420.158 179.978 420.629 187.427 425.321 194.901C428.511 199.673 433.143 202.366 437.704 202.094C440.398 201.931 442.548 200.706 443.595 198.732C445.138 196.021 446.682 194.587 448.081 194.544C448.778 194.526 449.373 194.866 449.759 195.499C450.569 196.83 450.322 199.104 449.146 201.157C447.69 203.691 444.562 206.747 440.052 207.722C436.995 208.386 432.147 208.303 426.399 204.138C421.751 200.81 418.602 195.842 417.04 189.373C413.587 174.266 422.891 164.176 433.674 160.849C433.706 160.839 433.74 160.828 433.772 160.818C448.468 156.344 468.616 162.833 478.126 187.654C480.915 194.938 482.356 203.038 482.288 211.077C482.146 227.183 477.786 237.921 469.251 253.266C467.219 256.896 465.226 260.294 463.296 263.58C455.569 276.748 449.464 287.148 451.567 295.238C452.49 299.116 454.331 301.322 455.551 302.78C456.316 303.698 456.822 304.305 456.749 304.954C456.715 305.26 456.558 305.526 456.28 305.745C456.12 305.876 455.964 305.954 455.819 305.998Z" fill="#F9ECFF"/>
<path d="M433.662 196.561C433.946 197.481 433.41 198.464 432.465 198.755C431.52 199.047 430.524 198.537 430.24 197.617C429.956 196.695 430.491 195.713 431.436 195.421C432.381 195.13 433.377 195.639 433.662 196.561Z" fill="#F9ECFF"/>
<path d="M429.28 191.48C429.564 192.401 429.03 193.383 428.085 193.675C427.141 193.966 426.145 193.456 425.862 192.535C425.577 191.614 426.112 190.634 427.057 190.342C428.002 190.051 428.996 190.559 429.28 191.48Z" fill="#F9ECFF"/>
<path d="M426.586 185.772C426.87 186.693 426.335 187.675 425.39 187.967C424.445 188.258 423.45 187.748 423.166 186.827C422.882 185.907 423.417 184.926 424.362 184.634C425.306 184.343 426.302 184.852 426.586 185.772Z" fill="#F9ECFF"/>
<path d="M426.158 178.315C426.441 179.235 425.907 180.218 424.961 180.509C424.016 180.801 423.02 180.29 422.736 179.371C422.452 178.449 422.988 177.467 423.932 177.175C424.878 176.884 425.873 177.393 426.158 178.315Z" fill="#F9ECFF"/>
<path d="M430.583 171.676C430.867 172.596 430.331 173.579 429.387 173.871C428.442 174.162 427.446 173.653 427.162 172.731C426.878 171.811 427.414 170.829 428.359 170.538C429.303 170.246 430.299 170.756 430.583 171.676Z" fill="#F9ECFF"/>
<path d="M437.974 167.57C438.258 168.491 437.723 169.472 436.777 169.764C435.833 170.055 434.837 169.546 434.553 168.625C434.269 167.705 434.804 166.722 435.749 166.431C436.695 166.139 437.69 166.649 437.974 167.57Z" fill="#F9ECFF"/>
<path d="M446.902 167.061C447.186 167.982 446.653 168.964 445.707 169.256C444.763 169.547 443.766 169.038 443.482 168.118C443.198 167.196 443.734 166.213 444.679 165.922C445.624 165.63 446.618 166.141 446.902 167.061Z" fill="#F9ECFF"/>
<path d="M454.599 169.541C454.883 170.46 454.347 171.442 453.401 171.734C452.458 172.025 451.462 171.515 451.178 170.596C450.894 169.674 451.429 168.691 452.372 168.4C453.318 168.108 454.315 168.619 454.599 169.541Z" fill="#F9ECFF"/>
<path d="M457.595 177.575C459.249 179.085 461.773 181.897 462.984 185.822C465.588 194.263 469.864 198.623 476.027 199.105C474.925 197.872 473.219 195.338 471.549 190.363C469.043 182.891 464.696 178.881 457.595 177.575ZM477.66 200.213C477.611 200.228 477.558 200.236 477.504 200.238C469.984 200.378 464.885 195.771 461.917 186.151C460.179 180.52 455.431 177.23 455.383 177.198C455.176 177.055 455.094 176.793 455.185 176.558C455.282 176.324 455.529 176.177 455.774 176.207C464.417 177.151 469.764 181.539 472.609 190.01C475.171 197.643 477.759 199.204 477.785 199.217C477.997 199.341 478.103 199.591 478.037 199.828C477.985 200.014 477.841 200.157 477.66 200.213Z" fill="#F9ECFF"/>
<path d="M477.927 225.9L476.817 226.006C475.162 206.423 462.748 204.982 462.22 204.931C461.985 204.907 461.791 204.739 461.74 204.513C461.688 204.285 461.79 204.049 461.996 203.926C462.117 203.849 465.142 202.057 469.096 203.266C473.135 204.5 476.56 208.338 479.277 214.676L478.248 215.112C475.667 209.091 472.479 205.458 468.773 204.314C466.89 203.734 465.229 203.938 464.1 204.249C467.885 205.421 476.571 209.85 477.927 225.9Z" fill="#F9ECFF"/>
<path d="M466.601 223.856C467.04 226.156 467.462 230.373 466.261 235.61C464.242 244.413 466.898 247.627 467.986 248.53C475.436 235.629 469.507 226.984 466.601 223.856ZM468.32 249.839C468.19 249.878 468.046 249.872 467.915 249.811C467.69 249.709 462.479 247.135 465.174 235.387C466.905 227.845 465.093 222.375 465.074 222.321C464.995 222.09 465.083 221.836 465.289 221.695C465.493 221.557 465.765 221.564 465.957 221.715C466.088 221.819 478.984 232.352 468.64 249.589C468.565 249.713 468.45 249.799 468.32 249.839Z" fill="#F9ECFF"/>
<path d="M467.945 249.275C467.945 249.275 468.129 248.347 468.246 246.968C468.314 246.281 468.473 245.49 468.498 244.622C468.523 243.758 468.549 242.833 468.575 241.91C468.659 240.988 468.701 240.065 468.613 239.203C468.568 238.339 468.525 237.531 468.488 236.839C468.435 235.454 468.435 234.52 468.435 234.52L468.435 234.491C468.436 234.374 468.532 234.28 468.651 234.277C468.76 234.276 468.85 234.352 468.865 234.455C468.865 234.455 469.002 235.376 469.152 236.774C469.217 237.475 469.293 238.291 469.373 239.169C469.496 240.043 469.492 240.981 469.44 241.923C469.378 242.861 469.313 243.799 469.254 244.679C469.194 245.559 468.999 246.375 468.902 247.075C468.681 248.48 468.369 249.363 468.368 249.361L468.362 249.379C468.324 249.49 468.2 249.55 468.087 249.514C467.984 249.479 467.925 249.376 467.945 249.275Z" fill="#F9ECFF"/>
<path d="M435.067 111.622C435.55 113.918 436.042 118.126 434.898 123.366C433.504 129.749 435.884 134.343 436.957 136.006C443.992 123.157 438.007 114.696 435.067 111.622ZM437.168 137.558C437.131 137.569 437.094 137.577 437.052 137.582C436.87 137.598 436.692 137.526 436.574 137.389C436.384 137.162 431.93 131.746 433.809 123.154C435.463 115.581 433.526 110.155 433.507 110.101C433.423 109.872 433.507 109.615 433.709 109.47C433.913 109.325 434.188 109.329 434.382 109.479C434.512 109.581 447.575 119.923 437.491 137.303C437.419 137.426 437.303 137.516 437.168 137.558Z" fill="#F9ECFF"/>
<path d="M436.796 136.998C436.796 136.998 436.965 136.068 437.061 134.688C437.117 134 437.265 133.206 437.277 132.341C437.288 131.473 437.301 130.55 437.312 129.627C437.381 128.704 437.41 127.781 437.309 126.921C437.25 126.057 437.195 125.252 437.148 124.561C437.073 123.177 437.059 122.241 437.059 122.241L437.059 122.215C437.058 122.097 437.152 122 437.272 121.997C437.381 121.993 437.471 122.071 437.488 122.172C437.488 122.172 437.639 123.091 437.811 124.486C437.886 125.185 437.974 126 438.068 126.875C438.203 127.746 438.214 128.686 438.178 129.627C438.128 130.567 438.08 131.504 438.034 132.384C437.988 133.265 437.805 134.083 437.719 134.784C437.519 136.191 437.22 137.078 437.22 137.078L437.215 137.096C437.177 137.208 437.054 137.27 436.941 137.234C436.838 137.202 436.778 137.101 436.796 136.998Z" fill="#F9ECFF"/>
<path d="M429.27 50.6477C429.753 52.9442 430.245 57.1517 429.102 62.3923C427.707 68.7743 430.085 73.3703 431.158 75.0328C438.195 62.1829 432.211 53.7228 429.27 50.6477ZM431.369 76.5854C431.332 76.596 431.294 76.6035 431.253 76.608C431.07 76.6246 430.893 76.5523 430.775 76.4153C430.585 76.1894 426.134 70.7726 428.012 62.1799C429.662 54.6278 427.729 49.1809 427.71 49.1267C427.628 48.8963 427.71 48.6403 427.912 48.4958C428.117 48.3527 428.389 48.3557 428.585 48.5048C428.715 48.6072 441.781 58.9498 431.692 76.3294C431.62 76.4529 431.503 76.5433 431.369 76.5854Z" fill="#F9ECFF"/>
<path d="M430.999 76.0248C430.999 76.0248 431.169 75.0937 431.264 73.7155C431.321 73.0256 431.468 72.233 431.479 71.3661C431.491 70.5006 431.504 69.5766 431.515 68.654C431.584 67.7299 431.613 66.8087 431.512 65.9475C431.454 65.0835 431.398 64.278 431.35 63.5882C431.276 62.2028 431.262 61.2688 431.262 61.2688L431.262 61.2402C431.261 61.1246 431.356 61.026 431.475 61.0246C431.584 61.0203 431.675 61.0974 431.691 61.1988C431.691 61.1988 431.842 62.1171 432.014 63.5125C432.089 64.2123 432.177 65.0264 432.271 65.9018C432.407 66.7745 432.417 67.7128 432.381 68.654C432.332 69.5937 432.283 70.5306 432.237 71.4118C432.191 72.2915 432.008 73.1099 431.922 73.8111C431.722 75.2179 431.424 76.1048 431.424 76.1048L431.418 76.122C431.38 76.2334 431.259 76.2962 431.144 76.2605C431.041 76.2291 430.981 76.1277 430.999 76.0248Z" fill="#F9ECFF"/>
<path d="M452.344 73.0118C455.388 72.0727 457.946 71.7881 459.6 71.7213C455.825 69.6838 445.96 66.0727 434.89 75.8432C436.802 76.455 441.952 77.589 447.962 74.7248C449.495 73.9935 450.968 73.4358 452.344 73.0118ZM461.717 72.8069C461.647 72.8282 461.572 72.8368 461.494 72.8296C461.436 72.824 455.566 72.3117 448.436 75.7052C440.345 79.5624 433.876 76.6656 433.607 76.5404C433.441 76.4635 433.327 76.3127 433.299 76.1348C433.272 75.9584 433.336 75.7777 433.472 75.6525C448.318 61.8953 461.767 71.7526 461.9 71.8536C462.096 72.0001 462.168 72.2591 462.071 72.4853C462.007 72.6433 461.874 72.7585 461.717 72.8069Z" fill="#F9ECFF"/>
<path d="M433.756 75.8545C433.756 75.8545 434.564 75.3575 435.917 74.8273C436.593 74.576 437.364 74.2054 438.226 73.9473C439.092 73.6905 440.013 73.4156 440.935 73.1422C441.862 72.8798 442.797 72.6619 443.699 72.5786C444.591 72.4551 445.424 72.3399 446.138 72.2413C447.567 72.0664 448.518 71.9859 448.518 71.9859C448.637 71.9762 448.739 72.0623 448.749 72.1775C448.756 72.2843 448.683 72.3787 448.579 72.4009L448.552 72.4079C448.552 72.4079 447.619 72.6217 446.224 72.8882C445.525 73.0103 444.71 73.1547 443.838 73.3073C442.957 73.4212 442.046 73.671 441.145 73.9611C440.229 74.1971 439.314 74.4331 438.456 74.6524C437.597 74.8731 436.844 75.2062 436.171 75.4269C434.824 75.8517 433.939 76.2376 433.939 76.2376C433.83 76.2848 433.702 76.2376 433.655 76.1307C433.611 76.0321 433.65 75.9197 433.74 75.8656L433.756 75.8545Z" fill="#F9ECFF"/>
<path d="M445.528 125.862C446.009 128.159 446.503 132.365 445.359 137.606C443.965 143.987 446.345 148.583 447.418 150.246C454.453 137.395 448.468 128.936 445.528 125.862ZM447.629 151.798C447.592 151.809 447.554 151.816 447.513 151.82C447.33 151.837 447.153 151.766 447.035 151.628C446.845 151.402 442.391 145.984 444.27 137.394C445.919 129.84 443.984 124.394 443.965 124.34C443.881 124.111 443.965 123.854 444.167 123.71C444.369 123.566 444.644 123.57 444.837 123.718C444.971 123.821 458.038 134.161 447.952 151.541C447.88 151.664 447.764 151.756 447.629 151.798Z" fill="#F9ECFF"/>
<path d="M447.253 151.237C447.253 151.237 447.422 150.307 447.517 148.929C447.574 148.239 447.722 147.445 447.733 146.579C447.745 145.713 447.758 144.79 447.769 143.867C447.838 142.945 447.867 142.022 447.766 141.161C447.708 140.298 447.652 139.491 447.605 138.801C447.53 137.416 447.516 136.482 447.516 136.482L447.516 136.454C447.515 136.336 447.609 136.24 447.729 136.236C447.838 136.233 447.928 136.31 447.945 136.411C447.945 136.411 448.096 137.33 448.268 138.725C448.343 139.425 448.431 140.241 448.525 141.114C448.66 141.987 448.671 142.925 448.634 143.867C448.585 144.806 448.537 145.745 448.491 146.625C448.445 147.505 448.262 148.322 448.175 149.025C447.976 150.432 447.678 151.318 447.678 151.318L447.672 151.336C447.634 151.447 447.511 151.509 447.398 151.473C447.295 151.441 447.235 151.34 447.253 151.237Z" fill="#F9ECFF"/>
<path d="M457.486 136.95C457.717 139.287 457.748 143.529 456.045 148.633C453.969 154.842 455.836 159.664 456.721 161.433C465.099 149.363 460.072 140.317 457.486 136.95ZM456.82 162.984C456.764 163.002 456.705 163.011 456.645 163.011C456.463 163.009 456.293 162.919 456.193 162.769C456.029 162.524 452.191 156.669 454.984 148.307C457.441 140.954 456.115 135.328 456.1 135.271C456.044 135.037 456.152 134.788 456.369 134.666C456.583 134.544 456.855 134.575 457.037 134.744C457.155 134.861 469.007 146.515 457.11 162.778C457.039 162.877 456.935 162.95 456.82 162.984Z" fill="#F9ECFF"/>
<path d="M456.45 162.403C456.45 162.403 456.719 161.494 456.963 160.13C457.093 159.45 457.326 158.676 457.431 157.814C457.537 156.953 457.648 156.034 457.76 155.115C457.928 154.205 458.057 153.289 458.05 152.421C458.085 151.555 458.117 150.747 458.145 150.054C458.221 148.668 458.309 147.736 458.309 147.736L458.312 147.707C458.323 147.592 458.428 147.505 458.547 147.513C458.655 147.523 458.736 147.607 458.743 147.709C458.743 147.709 458.792 148.641 458.812 150.047C458.81 150.753 458.809 151.574 458.809 152.453C458.848 153.337 458.757 154.273 458.619 155.206C458.47 156.136 458.319 157.066 458.179 157.937C458.037 158.808 457.767 159.604 457.606 160.294C457.256 161.674 456.864 162.528 456.864 162.528L456.855 162.544C456.806 162.65 456.679 162.7 456.569 162.653C456.47 162.611 456.42 162.503 456.45 162.403Z" fill="#F9ECFF"/>
<path d="M477.091 238.194C490.216 244.289 498.791 238.101 501.961 235.046C499.6 235.682 495.353 236.409 490.059 235.503C482.322 234.187 478.378 236.995 477.091 238.194ZM494.061 240.949C489.453 242.372 483.355 242.501 475.92 238.853C475.772 238.783 475.666 238.649 475.631 238.491C475.594 238.334 475.633 238.168 475.733 238.039C475.904 237.819 480.051 232.688 490.264 234.43C497.988 235.748 503.504 233.393 503.559 233.373C503.78 233.273 504.059 233.335 504.214 233.526C504.372 233.715 504.378 233.986 504.231 234.187C504.17 234.266 500.632 238.923 494.061 240.949Z" fill="#F9ECFF"/>
<path d="M476.206 238.157C476.206 238.157 477.162 238.268 478.571 238.281C479.277 238.296 480.091 238.395 480.976 238.356C481.86 238.317 482.804 238.274 483.747 238.232C484.69 238.245 485.634 238.221 486.51 238.07C487.389 237.963 488.21 237.86 488.913 237.774C490.325 237.62 491.279 237.552 491.279 237.552L491.307 237.549C491.427 237.542 491.529 237.63 491.536 237.746C491.541 237.852 491.467 237.945 491.364 237.967C491.364 237.967 490.429 238.168 489.01 238.418C488.298 238.534 487.468 238.668 486.579 238.811C485.692 238.994 484.734 239.06 483.772 239.079C482.812 239.086 481.852 239.093 480.952 239.098C480.053 239.104 479.211 238.974 478.493 238.931C477.05 238.818 476.135 238.578 476.135 238.577L476.119 238.572C476.003 238.54 475.937 238.425 475.969 238.313C475.999 238.21 476.101 238.145 476.206 238.157Z" fill="#F9ECFF"/>
<path d="M496.769 175.411C495.804 176.375 493.604 178.79 488.948 184.713C483.299 191.898 482.325 201.459 482.225 206.278C483.402 203.533 485.767 199.298 490.24 195.249C497.743 188.45 497.167 178.514 496.769 175.411ZM481.886 209.906C481.823 209.925 481.756 209.933 481.687 209.929C481.412 209.915 481.193 209.707 481.171 209.439C481.117 208.828 479.967 194.358 488.07 184.054C495.184 175.007 496.685 173.966 496.912 173.849C497.069 173.768 497.25 173.764 497.406 173.836C497.563 173.909 497.675 174.047 497.71 174.213C497.738 174.346 500.413 187.506 490.989 196.044C483.959 202.411 482.285 209.427 482.27 209.497C482.223 209.695 482.075 209.847 481.886 209.906Z" fill="#F9ECFF"/>
<path d="M481.672 208.591C481.672 208.591 481.693 207.082 482.141 204.896C482.418 203.817 482.68 202.533 483.177 201.226C483.596 199.891 484.176 198.518 484.782 197.155C485.351 195.773 486.112 194.485 486.77 193.253C487.406 192.005 488.117 190.908 488.755 189.987C490.024 188.145 490.869 186.916 490.869 186.916C490.956 186.791 491.128 186.757 491.256 186.84C491.376 186.918 491.411 187.073 491.342 187.195L491.331 187.215C491.331 187.215 490.599 188.494 489.5 190.417C488.908 191.351 488.298 192.484 487.689 193.718C487.062 194.942 486.335 196.22 485.8 197.582C485.182 198.909 484.59 200.246 484.159 201.542C483.942 202.189 483.657 202.794 483.498 203.397C483.317 203.995 483.146 204.56 482.987 205.082C482.729 206.133 482.465 207.02 482.381 207.632C482.26 208.243 482.229 208.615 482.229 208.615C482.216 208.766 482.081 208.878 481.928 208.869C481.781 208.857 481.67 208.733 481.672 208.591Z" fill="#F9ECFF"/>
<path d="M493.385 268.159C492.12 268.549 490.841 269.233 490.101 270.033C488.568 271.649 487.953 274.321 488.526 276.847C489.251 280.195 491.692 282.757 495.06 283.708C498.448 284.664 502.036 283.816 504.431 281.493C505.748 280.246 506.756 278.556 507.358 276.596C508.887 271.683 507.959 266.314 504.883 262.233C501.807 258.154 497.014 255.913 491.394 255.923C487.08 255.891 482.872 256.839 479.218 258.667C471.596 262.311 466.511 269.726 463.588 275.306C461.211 279.885 459.644 284.317 458.624 288.333C459.825 284.281 461.517 279.867 463.896 275.453C466.876 269.981 472.006 262.736 479.533 259.289C483.008 257.608 487.185 256.725 491.29 256.81C498.235 256.932 503.502 260.373 505.742 266.253C507.72 271.444 506.739 277.422 503.408 280.464C501.347 282.376 498.347 283.042 495.559 282.205C492.805 281.376 490.822 279.233 490.259 276.471C489.845 274.45 490.331 272.394 491.496 271.238C492.773 269.893 494.294 269.829 495.399 269.786C496.678 269.736 496.903 269.659 496.961 268.863C496.993 268.412 496.826 268.139 496.424 267.976C495.716 267.688 494.557 267.797 493.385 268.159ZM456.477 305.04C456.424 305.057 456.362 305.065 456.292 305.066C455.996 305.068 455.748 304.814 455.734 304.525C455.521 299.975 455.764 287.976 462.597 274.823C462.597 274.823 462.597 274.823 462.597 274.823C465.599 269.092 470.837 261.467 478.73 257.694C482.543 255.788 486.928 254.799 491.411 254.832C497.388 254.821 502.493 257.217 505.782 261.577C509.066 265.931 510.053 271.658 508.424 276.898C507.768 279.036 506.655 280.893 505.205 282.266C502.524 284.869 498.51 285.821 494.738 284.756C490.976 283.693 488.246 280.828 487.439 277.093C486.776 274.189 487.483 271.2 489.285 269.301C491.019 267.432 494.988 266.204 496.864 266.968C497.706 267.309 498.137 268.003 498.072 268.921C497.945 270.775 496.55 270.832 495.427 270.877C494.421 270.916 493.273 270.96 492.296 271.986C491.538 272.737 490.962 274.337 491.352 276.242C491.837 278.611 493.535 280.452 495.902 281.162C498.298 281.884 500.89 281.312 502.65 279.676C505.665 276.922 506.526 271.442 504.698 266.647C502.622 261.203 497.722 258.015 491.251 257.901C487.318 257.818 483.322 258.662 480.005 260.272C472.75 263.592 467.777 270.632 464.878 275.953C458.467 287.843 457.142 299.739 456.869 304.303C456.857 304.515 456.832 304.93 456.477 305.04Z" fill="#F9ECFF"/>
<path d="M472.924 295.146C472.946 295.196 472.965 295.26 472.989 295.336C473.128 295.777 473.449 296.811 474.883 297.914C475.597 298.454 476.786 299.111 478.384 299.168C479.89 299.261 481.612 298.572 482.787 297.418C485.067 295.348 486.168 292.869 485.983 290.228C485.787 287.449 484.124 284.77 481.531 283.063C478.89 281.322 475.726 280.71 472.622 281.336C468.633 282.149 464.91 284.913 461.923 289.328C459.227 293.318 457.75 298.076 457.036 301.346C458.213 298.603 460.017 294.739 462.311 291.229C465.79 285.903 469.392 282.864 473.092 282.199C475.7 281.729 478.321 282.459 480.881 284.37C480.881 284.372 480.881 284.372 480.881 284.372C482.951 285.919 484.18 288.085 484.252 290.308C484.319 292.402 483.371 294.375 481.508 296.016C480.441 296.972 479.124 297.333 477.803 297.04C476.626 296.777 475.624 295.997 475.256 295.05C475.194 294.915 475.165 294.821 475.147 294.767C475.137 294.74 475.128 294.714 475.12 294.688C474.937 293.921 474.294 293.78 473.798 293.892C473.315 294.013 472.793 294.398 472.924 295.146ZM480.57 299.969C479.821 300.2 479.051 300.304 478.314 300.258C476.436 300.193 475.033 299.417 474.19 298.778C472.483 297.467 472.077 296.159 471.923 295.668C471.897 295.62 471.852 295.472 471.841 295.421C471.56 294.041 472.491 293.082 473.561 292.829C474.618 292.59 475.859 293.048 476.196 294.386C476.203 294.399 476.207 294.411 476.211 294.425C476.22 294.455 476.239 294.517 476.288 294.624C476.535 295.26 477.247 295.794 478.065 295.977C478.617 296.099 479.703 296.163 480.767 295.214C482.374 293.795 483.194 292.117 483.136 290.358C483.075 288.459 482.004 286.595 480.196 285.241C477.893 283.521 475.566 282.859 473.279 283.272C469.942 283.87 466.551 286.748 463.245 291.807C460.164 296.526 457.968 301.935 457.03 304.245C456.401 305.788 456.371 305.888 455.92 305.878C455.682 305.873 455.472 305.71 455.403 305.49C455.162 304.708 456.407 295.529 460.996 288.737C464.155 284.07 468.079 281.151 472.414 280.268C475.812 279.581 479.273 280.252 482.162 282.155C485.032 284.047 486.877 287.03 487.094 290.139C487.3 293.08 486.043 295.941 483.553 298.197C482.717 299.017 481.668 299.631 480.57 299.969Z" fill="#F9ECFF"/>
<path d="M478.83 267.932C472.526 269.877 466.165 277.041 461.398 287.362C466.269 279.584 472.634 273.135 478.826 269.957C480.517 269.09 481.922 268.908 482.974 269.433C484.285 270.085 484.506 271.565 484.514 271.627C484.539 271.812 484.461 271.995 484.308 272.108C484.177 272.203 483.884 272.453 484.005 272.704C484.089 272.883 484.365 273.029 484.709 272.946C484.736 272.939 484.766 272.931 484.795 272.921C485.711 272.639 485.947 271.583 485.768 270.635C485.422 268.821 483.668 267.072 480.628 267.521C480.031 267.61 479.43 267.746 478.83 267.932ZM457.838 295.889C457.733 295.923 457.615 295.923 457.506 295.882C457.247 295.791 457.112 295.516 457.198 295.256C462.608 278.863 471.531 267.848 480.488 266.519C484.035 265.994 486.339 268.092 486.784 270.436C487.109 272.151 486.318 273.598 484.945 273.929C484.16 274.119 483.371 273.789 483.065 273.142C482.858 272.707 482.866 272.081 483.427 271.527C483.322 271.196 483.066 270.617 482.488 270.334C481.758 269.975 480.652 270.153 479.295 270.853C471.315 274.949 463.018 284.664 458.162 295.603C458.099 295.745 457.978 295.848 457.838 295.889Z" fill="#F9ECFF"/>
<path d="M428.55 253.617C428.653 253.585 428.766 253.58 428.876 253.606C436.189 255.312 437.915 266.75 439.737 278.859C440.259 282.311 440.797 285.882 441.472 289.309C442.892 296.518 445.687 300.469 448.378 302.631C445.687 299.896 442.977 295.214 441.961 287.228C441.727 285.401 441.571 283.074 441.39 280.376C440.735 270.654 439.747 255.96 433.527 252.15C430.735 250.441 427.97 250.13 425.965 251.303C424.751 252.008 423.971 253.188 424.023 254.242C424.045 254.685 424.237 255.286 425.023 255.624C426.769 256.385 428.136 254.004 428.194 253.903C428.271 253.763 428.403 253.663 428.55 253.617ZM455.283 306.403C455.232 306.42 455.178 306.429 455.123 306.432C455.009 306.436 443.649 306.693 440.275 289.549C439.594 286.1 439.054 282.517 438.531 279.049C436.806 267.603 435.175 256.776 428.999 254.882C428.183 256.066 426.491 257.576 424.514 256.72C423.481 256.273 422.859 255.395 422.805 254.315C422.73 252.805 423.731 251.22 425.352 250.279C427.777 248.873 430.996 249.182 434.184 251.134C440.924 255.263 441.896 269.724 442.607 280.281C442.788 282.958 442.943 285.271 443.17 287.064C445.283 303.634 455.103 305.23 455.201 305.244C455.512 305.288 455.735 305.558 455.715 305.866C455.697 306.118 455.52 306.329 455.283 306.403Z" fill="#F9ECFF"/>
<path d="M418.946 273.291C418.975 273.281 419.006 273.275 419.034 273.271C425.247 272.499 430.001 280.836 435.032 289.662C436.464 292.174 437.946 294.77 439.489 297.217C442.748 302.375 446.104 304.626 448.847 305.525C445.935 304.182 442.427 301.344 439.254 295.473C438.529 294.131 437.713 292.382 436.769 290.356C433.364 283.039 428.214 271.986 422.229 270.823C419.54 270.299 417.297 270.849 416.078 272.326C415.342 273.214 415.086 274.348 415.439 275.146C415.589 275.482 415.916 275.892 416.63 275.929C418.199 276.013 418.575 273.79 418.591 273.696C418.621 273.504 418.762 273.346 418.946 273.291ZM454.981 306.615C453.479 307.079 445.628 308.834 438.629 297.746C437.072 295.282 435.587 292.675 434.15 290.153C429.391 281.811 424.894 273.918 419.512 274.221C419.228 275.37 418.36 277.011 416.56 276.918C415.622 276.868 414.873 276.369 414.511 275.552C414.003 274.408 414.312 272.899 415.296 271.71C416.771 269.933 419.376 269.257 422.439 269.851C428.925 271.111 433.992 281.991 437.689 289.934C438.627 291.946 439.437 293.684 440.149 295.003C446.757 307.229 454.863 305.608 454.944 305.59C455.199 305.533 455.453 305.679 455.531 305.921C455.606 306.166 455.478 306.429 455.238 306.528C455.229 306.531 455.14 306.567 454.981 306.615Z" fill="#F9ECFF"/>
<path d="M443.671 236.389C443.816 236.344 443.978 236.358 444.117 236.434C451.53 240.636 449 257.322 446.764 272.044L446.612 273.052C444.565 286.58 446.89 294.61 449.692 299.243C446.933 293.68 444.836 284.191 448.397 268.996C452.452 251.71 452.517 240.722 448.587 236.336C446.594 234.108 444.258 233.129 442.177 233.649C440.959 233.972 439.927 234.805 439.691 235.752C439.589 236.153 439.597 236.736 440.198 237.241C441.536 238.363 443.424 236.543 443.44 236.525C443.509 236.459 443.586 236.415 443.671 236.389ZM455.564 306.078C455.446 306.114 455.317 306.112 455.196 306.066C454.628 305.849 441.341 300.445 445.511 272.906L445.664 271.9C447.701 258.465 450.23 241.798 443.887 237.589C442.853 238.426 440.967 239.331 439.466 238.074C438.678 237.412 438.365 236.476 438.607 235.507C438.948 234.154 440.213 233.024 441.918 232.591C444.417 231.968 447.155 233.067 449.43 235.61C453.665 240.336 453.681 251.333 449.481 269.226C443.091 296.499 455.588 305.019 455.716 305.102C455.951 305.255 456.029 305.559 455.893 305.808C455.822 305.941 455.701 306.035 455.564 306.078Z" fill="#F9ECFF"/>
<path d="M436.764 80.7038C434.99 81.2507 433.283 82.0516 431.703 83.0996C425.418 87.2694 421.84 94.747 421.622 104.162C421.013 115.866 426.872 127.925 431.896 135.981C437.254 144.572 444.342 152.341 453.427 159.546C448.571 154.345 441.905 146.096 434.108 133.898C426.063 121.299 421.162 103.338 428.352 91.6085C431.3 86.6573 436.516 83.6257 442.29 83.4883C446.919 83.3842 451.017 85.2609 452.986 88.3868C455.798 93.9127 454.492 97.0525 452.903 98.721C452.297 99.3568 451.293 99.9855 450.713 100.199C449.815 100.607 449.646 101.464 449.892 102.169C450.158 102.924 450.939 103.52 451.961 103.149C456.106 101.425 458.488 97.9839 458.467 93.7198C458.437 88.341 454.631 83.015 449.416 81.0564C445.327 79.5281 440.866 79.4379 436.764 80.7038ZM461.97 166.899C461.948 166.906 461.923 166.912 461.897 166.916C461.813 166.931 461.645 166.87 461.393 166.731C461.06 166.548 460.583 166.226 459.976 165.751C447.226 156.988 437.72 147.427 430.944 136.56C425.839 128.373 419.885 116.102 420.51 104.137C420.732 94.3722 424.491 86.5754 431.088 82.2002C436.623 78.5273 443.63 77.7208 449.828 80.0375C455.54 82.1821 459.548 87.7983 459.581 93.6976C459.604 98.4295 456.97 102.244 452.352 104.165C450.59 104.758 449.283 103.797 448.84 102.535C448.435 101.381 448.772 99.9536 450.139 99.2665C450.26 99.1888 450.411 99.1402 450.552 99.0944C450.564 99.0902 450.591 99.0833 450.614 99.0778C451.199 98.796 452.381 98.0228 453.03 96.5986C453.932 94.6137 453.591 92.0319 452.011 88.9268C450.269 86.1659 446.54 84.4835 442.3 84.5807C436.906 84.7001 432.058 87.5345 429.308 92.154C422.359 103.492 427.188 120.991 435.057 133.309C448.33 154.077 457.719 162.528 460.865 165.021C461.202 165.253 461.544 165.483 461.886 165.714C461.892 165.718 461.896 165.722 461.903 165.726C462.159 165.912 462.452 166.123 462.354 166.501C462.307 166.689 462.158 166.841 461.97 166.899Z" fill="#F9ECFF"/>
<path d="M400.21 49.9151C403.122 49.0175 406.28 49.2122 409.128 50.5373C418.69 54.8308 423.201 68.2877 423.346 78.9725C423.414 84.0571 423.176 88.6457 422.915 92.0202C423.923 88.4935 424.955 84.1849 425.285 79.2723C425.857 70.8132 423.316 62.1975 418.319 55.6356C414.27 49.9851 408.996 46.9194 403.454 46.9909C398.851 47.0503 394.517 49.3263 391.869 53.0781C389.528 56.41 389.421 61.1979 391.62 64.4583C392.641 65.9675 395.007 68.3653 399.418 67.4509C399.864 67.3064 400.075 67.0097 400.141 66.7708C400.248 66.3874 400.124 65.9249 399.84 65.648C399.621 65.432 399.33 65.3498 398.993 65.4046C398.991 65.4046 398.986 65.4061 398.981 65.4076C398.423 65.5796 397.496 65.5278 396.967 65.4137C395.251 65.0471 393.08 63.6413 392.488 59.0375C392.382 56.2 394.137 53.2881 397.06 51.3924C398.056 50.7458 399.116 50.2529 400.21 49.9151ZM421.937 98.2762C421.851 98.3021 421.757 98.3082 421.663 98.2914C421.376 98.2367 421.185 97.975 421.225 97.6889C421.235 97.6083 422.371 89.3455 422.23 79.003C422.092 68.6452 417.781 55.6295 408.646 51.5278C405.071 49.8619 400.962 50.157 397.667 52.2976C395.07 53.9834 393.511 56.5256 393.598 58.934C393.914 61.3835 394.752 63.0662 396.079 63.8893C397.099 64.5207 398.129 64.4537 398.541 64.3913H398.544C398.546 64.3898 398.549 64.3898 398.551 64.3883C398.654 64.3579 398.777 64.3229 398.907 64.3168C399.564 64.2331 400.179 64.4263 400.635 64.8706C401.202 65.4244 401.431 66.2764 401.217 67.0432C401.023 67.7354 400.493 68.2572 399.758 68.4839C399.727 68.4931 399.697 68.5022 399.668 68.5098C395.945 69.2827 392.683 68.0245 390.688 65.0684C388.212 61.3957 388.32 56.2153 390.954 52.4695C393.814 48.4195 398.484 45.9655 403.455 45.9001C409.373 45.824 414.974 49.0509 419.223 54.9875C424.367 61.7395 426.985 70.6154 426.396 79.3286C425.949 85.9665 424.259 91.4861 423.026 95.5148C422.762 96.379 422.519 97.1732 422.313 97.8943C422.26 98.0815 422.113 98.2214 421.937 98.2762Z" fill="#F9ECFF"/>
<path d="M438.567 67.6073C449.288 66.6856 453.562 54.9375 454.551 51.6284C439.426 55.4588 438.537 65.2156 438.567 67.6073ZM441.962 68.0525C440.755 68.426 439.459 68.6636 438.057 68.7338C437.764 68.7472 437.512 68.5366 437.482 68.2512C437.468 68.1168 436.331 54.6865 455.212 50.3497C455.4 50.3063 455.594 50.3601 455.728 50.4916C455.862 50.6216 455.92 50.8113 455.878 50.9935C455.842 51.1474 452.57 64.7794 441.962 68.0525Z" fill="#F9ECFF"/>
<path d="M437.893 68.0404C437.893 68.0404 438.451 67.4017 439.323 66.4811C440.223 65.5851 441.395 64.3669 442.506 63.1038C443.689 61.9043 444.872 60.7034 445.76 59.8031C446.663 58.9157 447.294 58.3449 447.294 58.3449L447.307 58.3348C447.396 58.2553 447.533 58.2597 447.613 58.3449C447.685 58.4215 447.687 58.5386 447.622 58.6195C447.622 58.6195 447.093 59.2785 446.255 60.2337C445.401 61.176 444.264 62.4318 443.125 63.6876C440.798 66.1632 438.197 68.3381 438.197 68.3381C438.104 68.4147 437.967 68.4046 437.89 68.3165C437.821 68.2355 437.825 68.1185 437.893 68.0404Z" fill="#F9ECFF"/>
</g>
<defs>
<clipPath id="clip0_210_44">
<rect width="1440" height="382" fill="white"/>
</clipPath>
</defs>
</svg>
